<svg xmlns="http://www.w3.org/2000/svg" width="139.3" height="10.013" preserveAspectRatio="none">
    <g id="beam_3" data-name="组 3" transform="translate(-149.95 -35.803)">
        <line id="直线_319" data-name="直线 319" transform="translate(280.8 39.213)" fill="none" stroke="#000000" stroke-miterlimit="10" stroke-width="0.1"/>
        <path id="路径_376" data-name="路径 376" d="M280.8,40.413Z" fill="none" stroke="#000000" stroke-miterlimit="10" stroke-width="0.1"/>
        <line id="直线_320" data-name="直线 320" transform="translate(280.8 40.413)" fill="none" stroke="#000000" stroke-miterlimit="10" stroke-width="0.1"/>
        <line id="直线_321" data-name="直线 321" transform="translate(158.4 39.213)" fill="none" stroke="#000000" stroke-miterlimit="10" stroke-width="0.1"/>
        <path id="路径_377" data-name="路径 377" d="M158.4,40.413Z" fill="none" stroke="#000000" stroke-miterlimit="10" stroke-width="0.1"/>
        <line id="直线_322" data-name="直线 322" transform="translate(158.4 40.413)" fill="none" stroke="#000000" stroke-miterlimit="10" stroke-width="0.1"/>
        <line id="直线_323" data-name="直线 323" x2="0.24" transform="translate(281.04 40.413)" fill="none" stroke="#000000" stroke-miterlimit="10" stroke-width="0.1"/>
        <line id="直线_324" data-name="直线 324" x1="0.24" transform="translate(281.04 38.973)" fill="none" stroke="#000000" stroke-miterlimit="10" stroke-width="0.1"/>
        <line id="直线_325" data-name="直线 325" x1="0.24" transform="translate(281.28 38.973)" fill="none" stroke="#000000" stroke-miterlimit="10" stroke-width="0.1"/>
        <line id="直线_326" data-name="直线 326" x2="0.24" transform="translate(281.28 40.413)" fill="none" stroke="#000000" stroke-miterlimit="10" stroke-width="0.1"/>
        <path id="路径_378" data-name="路径 378" d="M281.632,38.967a.052.052,0,0,0-.039-.017m0,1.345a.061.061,0,0,0,.039-.017M281.646,39a.06.06,0,0,0-.014-.029m0,1.311a.058.058,0,0,0,.015-.039" fill="none" stroke="#000000" stroke-miterlimit="10" stroke-width="0.1"/>
        <path id="路径_379" data-name="路径 379" d="M158.64,40.413h0m.24-1.44h-.24m0,1.44h.24m-.24-1.44h0" fill="none" stroke="#000000" stroke-miterlimit="10" stroke-width="0.1"/>
        <path id="路径_380" data-name="路径 380" d="M159.1,38.967a.052.052,0,0,0-.038-.017m0,1.345a.061.061,0,0,0,.038-.017m0,0a.058.058,0,0,0,.015-.039m0-1.243a.062.062,0,0,0-.015-.029" fill="none" stroke="#000000" stroke-miterlimit="10" stroke-width="0.1"/>
        <path id="路径_381" data-name="路径 381" d="M158.16,38.973h-.24m0,1.44h.24m0-1.44h0m0,1.44h0" fill="none" stroke="#000000" stroke-miterlimit="10" stroke-width="0.1"/>
        <path id="路径_382" data-name="路径 382" d="M157.919,40.278a.06.06,0,0,0,.038.017m0-1.345a.052.052,0,0,0-.038.017m-.016,1.272a.059.059,0,0,0,.016.039m0-1.311A.054.054,0,0,0,157.9,39" fill="none" stroke="#000000" stroke-miterlimit="10" stroke-width="0.1"/>
        <path id="路径_383" data-name="路径 383" d="M280.32,40.413h.24m0-1.44h-.24m.48,0h-.24m0,1.44h.24" fill="none" stroke="#000000" stroke-miterlimit="10" stroke-width="0.1"/>
        <path id="路径_384" data-name="路径 384" d="M280.487,38.95a.05.05,0,0,0-.038.017m0,1.311a.058.058,0,0,0,.038.017m-.054-.056a.059.059,0,0,0,.016.039m0-1.311a.054.054,0,0,0-.015.029" fill="none" stroke="#000000" stroke-miterlimit="10" stroke-width="0.1"/>
        <path id="路径_385" data-name="路径 385" d="M281.28,39.693h0m-122.64,0h0m-.96-.48v.24m0-.24h0m1.44,0h0m0,.24v-.24" fill="none" stroke="#000000" stroke-miterlimit="10" stroke-width="0.1"/>
        <path id="路径_386" data-name="路径 386" d="M157.73,39.377a.023.023,0,0,0,.007.017m0-.379a.023.023,0,0,0-.007.017m1.554.362a.028.028,0,0,0,.007-.017m0-.345a.028.028,0,0,0-.007-.017m-1.547.379a.026.026,0,0,0,.016.009m0-.4a.026.026,0,0,0-.016.009m1.547,0a.026.026,0,0,0-.016-.009m0,.4a.026.026,0,0,0,.016-.009" fill="none" stroke="#000000" stroke-miterlimit="10" stroke-width="0.1"/>
        <path id="路径_387" data-name="路径 387" d="M157.68,39.213h0m0,.24h0m1.44,0h0m0-.24h0m120.96,0h0v.24m1.68-.24h0m0,.24v-.24" fill="none" stroke="#000000" stroke-miterlimit="10" stroke-width="0.1"/>
        <path id="路径_388" data-name="路径 388" d="M280.259,39.377a.036.036,0,0,0,.007.017m0-.379a.036.036,0,0,0-.007.017m1.562,0a.028.028,0,0,0-.007-.017m0,.379a.028.028,0,0,0,.007-.017m-1.555.017a.028.028,0,0,0,.017.009m0-.4a.028.028,0,0,0-.017.009m1.532.388a.026.026,0,0,0,.016-.009m0-.379a.026.026,0,0,0-.016-.009" fill="none" stroke="#000000" stroke-miterlimit="10" stroke-width="0.1"/>
        <path id="路径_389" data-name="路径 389" d="M280.08,39.453h0m.24-.24h-.24m1.68.24h0m0-.24h-.24m-.24,1.2v-.24m-.72.24h0m.72,0h0m-.72-.24v.24m-122.4-.24v.24h0m.48,0h0v-.24m121.92-.48h0m-122.4,0h0m.24-.48h0m0,1.2h0m122.64-1.2h0m0,1.2h0M150,43.053h6m4.8,0H278.4m5.04,0h5.76m-8.4-2.88Zm0-.96v.96m0-.96Zm0,.96v-.96m-.24.48h-.48" fill="none" stroke="#000000" stroke-miterlimit="10" stroke-width="0.1"/>
        <path id="路径_390" data-name="路径 390" d="M280.678,39.665a.1.1,0,0,0,.1-.1m0,0a.1.1,0,0,0-.1-.1h-.006" fill="none" stroke="#000000" stroke-miterlimit="10" stroke-width="0.1"/>
        <line id="直线_327" data-name="直线 327" x2="0.48" transform="translate(280.08 39.693)" fill="none" stroke="#000000" stroke-miterlimit="10" stroke-width="0.1"/>
        <path id="路径_391" data-name="路径 391" d="M280.744,39.037a.443.443,0,0,0-.442.434" fill="none" stroke="#000000" stroke-miterlimit="10" stroke-width="0.1"/>
        <path id="路径_392" data-name="路径 392" d="M280.56,39.213h.24m0,.96h-.24" fill="none" stroke="#000000" stroke-miterlimit="10" stroke-width="0.1"/>
        <path id="路径_393" data-name="路径 393" d="M280.3,39.665a.442.442,0,0,0,.442.433" fill="none" stroke="#000000" stroke-miterlimit="10" stroke-width="0.1"/>
        <path id="路径_394" data-name="路径 394" d="M280.8,39.213h0m-.72,4.32v-1.68m.24-.24h-.24v.24m.24-.24.48-.48v-.96h0v.96h0Zm0,0v.24h0v1.68h-.24m0-3.84h0m.24,0h-.24m0,3.84h.24m-.24,0h0m.24,0h0m.48-3.12Zm0,0Zm0,0Zm0,0Zm0,0h0m-122.4-.24h-.24m0-.96v.96m0-.96h.24m0,.96v-.96m-.48.48h-.24" fill="none" stroke="#000000" stroke-miterlimit="10" stroke-width="0.1"/>
        <path id="路径_395" data-name="路径 395" d="M158.148,39.665a.1.1,0,0,0,.1-.1m0,0a.1.1,0,0,0-.1-.1h0" fill="none" stroke="#000000" stroke-miterlimit="10" stroke-width="0.1"/>
        <line id="直线_328" data-name="直线 328" x2="0.24" transform="translate(157.68 39.693)" fill="none" stroke="#000000" stroke-miterlimit="10" stroke-width="0.1"/>
        <path id="路径_396" data-name="路径 396" d="M158.215,39.037a.443.443,0,0,0-.443.434" fill="none" stroke="#000000" stroke-miterlimit="10" stroke-width="0.1"/>
        <path id="路径_397" data-name="路径 397" d="M158.16,39.213h0m0,.96h0" fill="none" stroke="#000000" stroke-miterlimit="10" stroke-width="0.1"/>
        <path id="路径_398" data-name="路径 398" d="M157.772,39.665a.442.442,0,0,0,.443.433" fill="none" stroke="#000000" stroke-miterlimit="10" stroke-width="0.1"/>
        <path id="路径_399" data-name="路径 399" d="M158.4,39.213h-.24m-.48,4.32v-1.68m0-.24h0v.24m0-.24.48-.48.24-.24v-.72h-.24m.24,0v.96h0l-.72.48v.24h0v1.68h0m0-3.84Zm0,3.84Zm0,0h0m.72-3.12Zm0,0Zm0,0Zm0,0Zm0,0h0m122.88,0h0m-.24,0h0m.24-1.2v-.24m.24.72Zm0,0Zm0,.48v.24m-122.88,0Zm0-1.2v-.24m.24.72Zm0,.48v.24m0-.72Zm-.72-.72v.24m0,1.2Zm-.24-.72h-.24m0,.72v-.24m0-.48Zm0,0h0m122.88.72h0m0-1.44v.24m.24,1.2h0m-.48-.72h0m0,.72v-.24m0-.48Zm0,0Zm-122.64,0h0m122.64,0Zm0,0h0m1.2,0Zm0,0Zm0,0Zm-123.84,0Zm0,0h0m1.44,0Zm0,0Zm0,0h-.24m-1.2-.48h0m1.44,0h0m-.72,0Zm-.72,0h1.44m121.2,0h-.24m1.68,0h-.24m-.72,0Zm-.48,0h1.2m-.24,1.2h-.24m-.24,0h-.24m.24,0h-.24m.72,0h-.24m-.24-1.44h.24m-.24,0h.24v.24m-.24-.24v.24m-122.4,1.2h-.24m.24,0h-.24m.48,0h-.24m.24,0h-.24m-.24-1.44h.48m-.48,0h.48v.24m-.48-.24v.24m.24.96h0m0-.96h.24m0,.96v-.96m0,.96h-.24m.72-.48h-.48" fill="none" stroke="#000000" stroke-miterlimit="10" stroke-width="0.1"/>
        <path id="路径_400" data-name="路径 400" d="M158.806,40.1a.442.442,0,0,0,.442-.433" fill="none" stroke="#000000" stroke-miterlimit="10" stroke-width="0.1"/>
        <path id="路径_401" data-name="路径 401" d="M158.64,40.173h0m0-.96h0" fill="none" stroke="#000000" stroke-miterlimit="10" stroke-width="0.1"/>
        <path id="路径_402" data-name="路径 402" d="M159.248,39.471a.442.442,0,0,0-.442-.434" fill="none" stroke="#000000" stroke-miterlimit="10" stroke-width="0.1"/>
        <line id="直线_329" data-name="直线 329" x2="0.48" transform="translate(158.64 39.693)" fill="none" stroke="#000000" stroke-miterlimit="10" stroke-width="0.1"/>
        <path id="路径_403" data-name="路径 403" d="M158.878,39.471h-.006a.1.1,0,0,0-.1.1m0,0a.1.1,0,0,0,.1.1" fill="none" stroke="#000000" stroke-miterlimit="10" stroke-width="0.1"/>
        <path id="路径_404" data-name="路径 404" d="M158.64,39.213h-.24m0,.96h.24m.48,3.36v-1.68h0v-.24l-.72-.48h0v-.24m0-.72v.96l.72.48h0v1.92h0m0-3.84Zm0,3.84Zm0,0h0m121.92-3.36h-.24m0-.96h.24m0,.96v-.96m0,.96h0m.72-.48h-.48" fill="none" stroke="#000000" stroke-miterlimit="10" stroke-width="0.1"/>
        <path id="路径_405" data-name="路径 405" d="M281.336,40.1a.442.442,0,0,0,.442-.433" fill="none" stroke="#000000" stroke-miterlimit="10" stroke-width="0.1"/>
        <path id="路径_406" data-name="路径 406" d="M281.28,40.173h-.24m0-.96h.24" fill="none" stroke="#000000" stroke-miterlimit="10" stroke-width="0.1"/>
        <path id="路径_407" data-name="路径 407" d="M281.778,39.471a.442.442,0,0,0-.442-.434" fill="none" stroke="#000000" stroke-miterlimit="10" stroke-width="0.1"/>
        <line id="直线_330" data-name="直线 330" x2="0.48" transform="translate(281.28 39.693)" fill="none" stroke="#000000" stroke-miterlimit="10" stroke-width="0.1"/>
        <path id="路径_408" data-name="路径 408" d="M281.408,39.471H281.4a.1.1,0,0,0-.1.1m0,0a.1.1,0,0,0,.1.1" fill="none" stroke="#000000" stroke-miterlimit="10" stroke-width="0.1"/>
        <path id="路径_409" data-name="路径 409" d="M281.04,39.213h0m.48,4.32v-1.68h0v-.24l-.48-.48h0l-.24-.24m.24-.72Zm0,0v.96l.48.48h.24v1.92h-.24m.24-3.84h-.24m0,3.84h.24m-.24,0h0" fill="none" stroke="#000000" stroke-miterlimit="10" stroke-width="0.1"/>
        <path id="路径_410" data-name="路径 410" d="M281.75,41.833a.093.093,0,0,0-.083-.05.094.094,0,0,0-.1.095m0,0a.094.094,0,0,0,.1.094.093.093,0,0,0,.083-.05m-1.242-.044a.095.095,0,0,0-.178-.045m0,.089a.095.095,0,0,0,.178-.044m-.651,0a.209.209,0,1,0-.418,0m0,0a.209.209,0,1,0,.418,0m2.784,0a.208.208,0,1,0-.417,0m0,0a.208.208,0,1,0,.417,0" fill="none" stroke="#000000" stroke-miterlimit="10" stroke-width="0.1"/>
        <path id="路径_411" data-name="路径 411" d="M278.4,42.333v-.72m5.04,0v.72m0-1.2H278.4m5.04,0v.48m-5.04,0v-.48m5.04,1.2v.24m-5.04,0v-.24m5.04.24v.48m-5.04,0v-.48m5.04.48v.24m-5.04,0v-.24m0,.24h1.68m.24,0h1.2m.24,0h1.68m-5.04,0h0" fill="none" stroke="#000000" stroke-miterlimit="10" stroke-width="0.1"/>
        <path id="路径_412" data-name="路径 412" d="M159.22,41.833a.093.093,0,0,0-.083-.05.1.1,0,0,0-.095.095m0,0a.1.1,0,0,0,.095.094.093.093,0,0,0,.083-.05m-1.242-.044a.094.094,0,0,0-.094-.095.1.1,0,0,0-.084.05m0,.089a.1.1,0,0,0,.084.05.094.094,0,0,0,.094-.094m-.651,0a.209.209,0,1,0-.418,0m0,0a.209.209,0,1,0,.418,0m2.785,0a.209.209,0,1,0-.418,0m0,0a.209.209,0,1,0,.418,0" fill="none" stroke="#000000" stroke-miterlimit="10" stroke-width="0.1"/>
        <path id="路径_413" data-name="路径 413" d="M156,42.333v-.72m4.8,0v.72m-4.8-.72v-.48m4.8,0h-2.16m-.24,0h0m-.24,0H156m4.8,0v.48m0,.72v.24m-4.8,0v-.24m4.8.24v.48m-4.8,0v-.48m4.8.48v.24m-4.8,0v-.24m0,.24h4.8m-4.8,0h0m63.6.48v.24m0-.24.24.24h-.24m0-.24v.24m0-.24v.24m-1.44-.24h-.24" fill="none" stroke="#000000" stroke-miterlimit="10" stroke-width="0.1"/>
        <path id="路径_414" data-name="路径 414" d="M218.173,43.566v.11" fill="none" stroke="#000000" stroke-miterlimit="10" stroke-width="0.1"/>
        <path id="路径_415" data-name="路径 415" d="M218.16,43.773h-.24m1.92,0h0" fill="none" stroke="#000000" stroke-miterlimit="10" stroke-width="0.1"/>
        <path id="路径_416" data-name="路径 416" d="M219.95,43.566v.11" fill="none" stroke="#000000" stroke-miterlimit="10" stroke-width="0.1"/>
        <path id="路径_417" data-name="路径 417" d="M219.84,43.773h0m-1.68,0Zm0,0h0" fill="none" stroke="#000000" stroke-miterlimit="10" stroke-width="0.1"/>
        <path id="路径_418" data-name="路径 418" d="M219.621,43.566v.11" fill="none" stroke="#000000" stroke-miterlimit="10" stroke-width="0.1"/>
        <path id="路径_419" data-name="路径 419" d="M219.6,43.773Zm0,0h0m.24,0Zm0,0h0" fill="none" stroke="#000000" stroke-miterlimit="10" stroke-width="0.1"/>
        <path id="路径_420" data-name="路径 420" d="M217.844,43.566v.11" fill="none" stroke="#000000" stroke-miterlimit="10" stroke-width="0.1"/>
        <path id="路径_421" data-name="路径 421" d="M217.68,43.773Zm0,0h0m.24,0-.24.24v-.24m.24,0h-.24m.24,0h0" fill="none" stroke="#000000" stroke-miterlimit="10" stroke-width="0.1"/>
        <path id="路径_422" data-name="路径 422" d="M219.039,43.817a.14.14,0,0,0-.279,0m0,0a.14.14,0,0,0,.279,0" fill="none" stroke="#000000" stroke-miterlimit="10" stroke-width="0.1"/>
        <path id="路径_423" data-name="路径 423" d="M217.92,44.013Zm0,0h-.24m.48-.24-.24.24m.24-.24h1.44m0,.24v-.24m.24,0v.24m0-.24h1.2" fill="none" stroke="#000000" stroke-miterlimit="10" stroke-width="0.1"/>
        <path id="路径_424" data-name="路径 424" d="M221.089,43.919a.336.336,0,0,0,.1-.244" fill="none" stroke="#000000" stroke-miterlimit="10" stroke-width="0.1"/>
        <line id="直线_331" data-name="直线 331" y1="1.68" x2="1.68" transform="translate(219.36 44.013)" fill="none" stroke="#000000" stroke-miterlimit="10" stroke-width="0.1"/>
        <path id="路径_425" data-name="路径 425" d="M218.4,45.56a.7.7,0,0,0,.99,0" fill="none" stroke="#000000" stroke-miterlimit="10" stroke-width="0.1"/>
        <line id="直线_332" data-name="直线 332" x2="1.92" y2="1.68" transform="translate(216.48 44.013)" fill="none" stroke="#000000" stroke-miterlimit="10" stroke-width="0.1"/>
        <path id="路径_426" data-name="路径 426" d="M216.6,43.675a.336.336,0,0,0,.1.244" fill="none" stroke="#000000" stroke-miterlimit="10" stroke-width="0.1"/>
        <path id="路径_427" data-name="路径 427" d="M216.48,43.773h1.2m.24,0v.24m0-.24h0m1.68,0Zm-1.92,0h.24v.24m0-.24v.24m1.68-.24h.24m-.24,0h0m1.44,0h-1.2m1.2,0Zm0,0Zm-4.56,0Zm0,0Zm1.2,0h-1.2m3.12,0h-1.44m-.24,0Zm0-.24v0Zm0,.24h0m1.68,0h0m0-.24v0Zm0,.24h0m-1.68,0h0m1.92,0h-.24m.24-.24-.24.24m.24-.24v.24m-1.92-.24v.24m0-.24.24.24m-.48,0v-.24l.24.24m1.68,0v0Zm0,0h0m-1.68-.48h0m.24,0h-.24m.24,0h2.88m0,.24v-.24m-1.44.24h.24m-.24,0h0m-1.68,0h-.24m-1.2-.24v.24m0-.24h1.2m.24,0h-.24m-1.2.48v-.24m4.56,0v.24" fill="none" stroke="#000000" stroke-miterlimit="10" stroke-width="0.1"/>
        <path id="路径_428" data-name="路径 428" d="M217.9,43.237a.2.2,0,0,0,.056-.047" fill="none" stroke="#000000" stroke-miterlimit="10" stroke-width="0.1"/>
        <path id="路径_429" data-name="路径 429" d="M217.92,43.293Z" fill="none" stroke="#000000" stroke-miterlimit="10" stroke-width="0.1"/>
        <path id="路径_430" data-name="路径 430" d="M218.06,43.19a.2.2,0,0,0,.057.047m1.725-.052a.2.2,0,0,0,.057.047m-.227,0a.2.2,0,0,0,.057-.047" fill="none" stroke="#000000" stroke-miterlimit="10" stroke-width="0.1"/>
        <path id="路径_431" data-name="路径 431" d="M219.6,43.293Zm-1.68-.24v0Zm0,0Zm1.68.24v-.24h0Z" fill="none" stroke="#000000" stroke-miterlimit="10" stroke-width="0.1"/>
        <path id="路径_432" data-name="路径 432" d="M217.843,43.179a.2.2,0,0,0,.057-.047" fill="none" stroke="#000000" stroke-miterlimit="10" stroke-width="0.1"/>
        <path id="路径_433" data-name="路径 433" d="M217.68,43.293h.24" fill="none" stroke="#000000" stroke-miterlimit="10" stroke-width="0.1"/>
        <path id="路径_434" data-name="路径 434" d="M218.117,43.132a.2.2,0,0,0,.057.047m1.446,0a.2.2,0,0,0,.057-.047" fill="none" stroke="#000000" stroke-miterlimit="10" stroke-width="0.1"/>
        <line id="直线_333" data-name="直线 333" transform="translate(219.6 43.293)" fill="none" stroke="#000000" stroke-miterlimit="10" stroke-width="0.1"/>
        <path id="路径_435" data-name="路径 435" d="M219.894,43.132a.2.2,0,0,0,.057.047" fill="none" stroke="#000000" stroke-miterlimit="10" stroke-width="0.1"/>
        <path id="路径_436" data-name="路径 436" d="M219.6,43.293h.24m-1.92,0v-.24l-.24.24m2.16,0-.24-.24v.24m-1.92,0h-1.2m1.2,0Zm-1.2,0h0" fill="none" stroke="#000000" stroke-miterlimit="10" stroke-width="0.1"/>
        <path id="路径_437" data-name="路径 437" d="M217.9,43.132l-.006,0-.007,0-.007,0-.007,0-.007,0-.008,0-.007,0-.008,0" fill="none" stroke="#000000" stroke-miterlimit="10" stroke-width="0.1"/>
        <line id="直线_334" data-name="直线 334" transform="translate(218.16 43.293)" fill="none" stroke="#000000" stroke-miterlimit="10" stroke-width="0.1"/>
        <path id="路径_438" data-name="路径 438" d="M218.174,43.1l-.008,0-.008,0-.007,0-.007,0-.007,0-.007,0-.007,0-.006,0" fill="none" stroke="#000000" stroke-miterlimit="10" stroke-width="0.1"/>
        <path id="路径_439" data-name="路径 439" d="M218.16,43.293h0m1.44,0h-1.44m1.44,0Z" fill="none" stroke="#000000" stroke-miterlimit="10" stroke-width="0.1"/>
        <path id="路径_440" data-name="路径 440" d="M219.677,43.132l-.006,0-.007,0-.007,0-.007,0-.007,0-.008,0-.007,0-.008,0" fill="none" stroke="#000000" stroke-miterlimit="10" stroke-width="0.1"/>
        <line id="直线_335" data-name="直线 335" transform="translate(219.84 43.293)" fill="none" stroke="#000000" stroke-miterlimit="10" stroke-width="0.1"/>
        <path id="路径_441" data-name="路径 441" d="M219.951,43.1l-.008,0-.008,0-.007,0-.007,0-.007,0-.007,0-.007,0-.006,0" fill="none" stroke="#000000" stroke-miterlimit="10" stroke-width="0.1"/>
        <path id="路径_442" data-name="路径 442" d="M219.84,43.293h0m1.2,0h-1.2m1.2,0h0" fill="none" stroke="#000000" stroke-miterlimit="10" stroke-width="0.1"/>
        <path id="路径_443" data-name="路径 443" d="M217.956,43.024l-.006,0-.007,0-.007,0-.007,0-.007,0-.008,0-.007,0-.008,0" fill="none" stroke="#000000" stroke-miterlimit="10" stroke-width="0.1"/>
        <path id="路径_444" data-name="路径 444" d="M217.68,43.053h.24" fill="none" stroke="#000000" stroke-miterlimit="10" stroke-width="0.1"/>
        <path id="路径_445" data-name="路径 445" d="M219.672,43l.008,0,.008,0,.007,0,.007,0,.007,0,.007,0,.007,0,.006,0" fill="none" stroke="#000000" stroke-miterlimit="10" stroke-width="0.1"/>
        <path id="路径_446" data-name="路径 446" d="M219.6,43.053Zm0,0h.24m-.24,0h.24m-1.92,0,.24.24m1.68-.24v.24m-2.16,0v-.24m1.92.24v-.24m-3.12,0v.24" fill="none" stroke="#000000" stroke-miterlimit="10" stroke-width="0.1"/>
        <path id="路径_447" data-name="路径 447" d="M216.6,43.03a.348.348,0,0,0-.049-.178m4.691,0a.357.357,0,0,0-.048.178" fill="none" stroke="#000000" stroke-miterlimit="10" stroke-width="0.1"/>
        <line id="直线_336" data-name="直线 336" y1="0.24" transform="translate(221.04 43.053)" fill="none" stroke="#000000" stroke-miterlimit="10" stroke-width="0.1"/>
        <path id="路径_448" data-name="路径 448" d="M219.217,45.07a.32.32,0,1,0-.64,0m0,0a.32.32,0,1,0,.64,0m.014,0a.334.334,0,1,0-.668,0" fill="none" stroke="#000000" stroke-miterlimit="10" stroke-width="0.1"/>
        <path id="路径_449" data-name="路径 449" d="M219.12,45.213h0m-.72,0h0" fill="none" stroke="#000000" stroke-miterlimit="10" stroke-width="0.1"/>
        <path id="路径_450" data-name="路径 450" d="M218.563,45.07a.334.334,0,1,0,.668,0" fill="none" stroke="#000000" stroke-miterlimit="10" stroke-width="0.1"/>
        <path id="路径_451" data-name="路径 451" d="M231.84,41.373v-3.84m-1.44,3.84h1.44m-1.44-3.84v3.84h0Zm1.44,0v3.84h0m44.64-3.84v3.84h-.24v-3.84m1.44,3.84v-3.84m-1.2,3.84h1.2m0-3.84v3.84h0m-24.24-3.84v3.84h0Zm1.2,3.84v-3.84m-1.2,3.84h1.2m.24-3.84v3.84m-.24,0h0m-47.04-3.84v3.84h0Zm1.2,3.84v-3.84m-1.2,3.84h1.2m0-3.84v3.84h0m-47.04-3.84v3.84h-.24v-3.84m1.44,3.84v-3.84m-1.2,3.84h1.2m0-3.84v3.84h0m21.6-3.84v3.84h0Zm1.2,3.84v-3.84m-1.2,3.84h1.2m.24-3.84v3.84h-.24m103.44.24v.72M150,41.613v.72m0-.96h6m4.8,0h.72m1.44,0h21.6m1.44,0h21.6m1.2,0h21.6m1.44,0h21.6m1.2,0h21.6m1.44,0h.72m5.04,0h5.76v.24m-139.2,0v-.24m139.2.96v.24m-139.2,0v-.24m139.2.24v.24M150,42.573v.24m139.2,0v.24m-139.2,0v-.24m139.2.24h0m-139.2,0h0m139.2,0h0m-139.2,0h0m127.68-5.52h0Zm0,0h0m0-1.44H161.52v-.24H277.68Zm0,0v1.44m-116.16-1.44v1.44m120,1.44v.24m0,.48h-.24m.24,0h0m0,.48v.24m0-1.44v.24m0,.48Zm0,.48v.24m-122.64-1.44v.24m0,.48h-.24m.24,0h0m0,.48v.24m0-1.44v.24m0,.48Zm0,.48v.24m-.96-.72h0m0-.48v-.24m0,.72h.24m-.24.72v-.24m0-.48h0m-.24.72v-.24m0-.48Zm0-.48v-.24m122.64,1.44v-.24m0-.48h.24m-.24,0h0m0-.48v-.24m0,.72h0m0-.48v-.24m0,1.44v-.24m0-.48h0m-122.64-.24h0m0-.24h1.44m0,.24h0m-1.44,0h0m0-.24h.72m.72.24h0m-.72-.24h.72m-1.44.24h0m.72-.24h-.72m1.44,0h-.72m.72.24h0m120.96-.24h.72m-.72.24h0m.72-.24h.96m0,.24h0m-1.68,0h0m0-.24h1.68m0,.24h0m-1.68,0h0m.72-.24h-.72m1.68.24h0m0-.24h-.96m-2.4,2.4h5.04m0,.72h-1.68m-.24,0h-1.2m-.24,0H278.4m0,.24h1.68m.24,0h1.2m.24,0h1.68m0,.48h-1.68m-.24,0h-1.2m-.24,0H278.4m0,.24h1.68m.24,0h1.2m.24,0h1.68M156,41.613h1.68m.24,0h.96m.24,0h1.68m0,.72H156m0,.24h4.8m0,.48H156m0,.24h4.8m128.4-1.68h-5.76m-5.04,0H160.8m-4.8,0h-6m0,.72h6m4.8,0H278.4m5.04,0h5.76m0,.24h-5.76m-5.04,0H160.8m-4.8,0h-6m0,.24h6m4.8,0H278.4m5.04,0h5.76m0,.24h-5.76m-5.04,0H160.8m-4.8,0h-6m139.2,0h-5.76m-5.04,0H160.8m-4.8,0h-6" fill="none" stroke="#000000" stroke-miterlimit="10" stroke-width="0.1"/>
    </g>
</svg>