<svg xmlns="http://www.w3.org/2000/svg" width="80.26" height="10.18" preserveAspectRatio="none">
  <g id="固定型轨250kg-2000-1" transform="translate(-29.67 -78.95)">
    <line id="直线_337" data-name="直线 337" x2="80.16" transform="translate(29.72 89.08)" fill="none" stroke="#000" stroke-miterlimit="10" stroke-width="0.1"/>
    <line id="直线_338" data-name="直线 338" x1="80.16" transform="translate(29.72 87.16)" fill="none" stroke="#000" stroke-miterlimit="10" stroke-width="0.1"/>
    <line id="直线_339" data-name="直线 339" y1="0.96" transform="translate(109.88 87.16)" fill="none" stroke="#000" stroke-miterlimit="10" stroke-width="0.1"/>
    <line id="直线_340" data-name="直线 340" x2="80.16" transform="translate(29.72 88.12)" fill="none" stroke="#000" stroke-miterlimit="10" stroke-width="0.1"/>
    <line id="直线_341" data-name="直线 341" y1="0.96" transform="translate(29.72 87.16)" fill="none" stroke="#000" stroke-miterlimit="10" stroke-width="0.1"/>
    <path id="路径_452" data-name="路径 452" d="M108.161,87.6a.281.281,0,1,0-.281.28.281.281,0,0,0,.281-.28m-76.2,0a.281.281,0,1,0-.281.28.281.281,0,0,0,.281-.28" fill="none" stroke="#000" stroke-miterlimit="10" stroke-width="0.1"/>
    <path id="路径_453" data-name="路径 453" d="M29.72,86.68h9.6m1.92,0h27.6m1.92,0H98.12m2.16,0h9.6v.48m-80.16,0v-.48m80.16,1.68H29.72m80.16-.24v.24m-80.16,0v-.24m0,.96h80.16v-.72m-80.16.72v-.72m80.16.72H29.72m80.16,0h0m-80.16,0h80.16m-80.16,0h0m80.16,0h0m-80.16,0h0m80.16-9.84H29.72m80.16,2.16V79.24M29.72,81.4h80.16m-80.16,0V79.24" fill="none" stroke="#000" stroke-miterlimit="10" stroke-width="0.1"/>
    <path id="路径_454" data-name="路径 454" d="M36.041,80.16a.281.281,0,1,0-.281.28.281.281,0,0,0,.281-.28m72.12,0a.281.281,0,1,0-.281.28.281.281,0,0,0,.281-.28m-76.2,0a.281.281,0,1,0-.281.28.281.281,0,0,0,.281-.28m72.24,0a.281.281,0,1,0-.281.28.281.281,0,0,0,.281-.28" fill="none" stroke="#000" stroke-miterlimit="10" stroke-width="0.1"/>
    <path id="路径_455" data-name="路径 455" d="M29.72,79h80.16v.24" fill="none" stroke="#000" stroke-miterlimit="10" stroke-width="0.1"/>
    <line id="直线_342" data-name="直线 342" y1="0.24" transform="translate(29.72 79)" fill="none" stroke="#000" stroke-miterlimit="10" stroke-width="0.1"/>
    <path id="路径_456" data-name="路径 456" d="M109.88,81.4H29.72" fill="none" stroke="#000" stroke-miterlimit="10" stroke-width="0.1"/>
    <path id="路径_457" data-name="路径 457" d="M41.24,81.4v5.28h0Z" fill="none" stroke="#000" stroke-miterlimit="10" stroke-width="0.1"/>
    <line id="直线_343" data-name="直线 343" x2="1.92" transform="translate(39.32 86.68)" fill="none" stroke="#000" stroke-miterlimit="10" stroke-width="0.1"/>
    <path id="路径_458" data-name="路径 458" d="M39.32,81.4v0Z" fill="none" stroke="#000" stroke-miterlimit="10" stroke-width="0.1"/>
    <line id="直线_344" data-name="直线 344" transform="translate(39.32 86.68)" fill="none" stroke="#000" stroke-miterlimit="10" stroke-width="0.1"/>
    <line id="直线_345" data-name="直线 345" y1="5.28" transform="translate(100.04 81.4)" fill="none" stroke="#000" stroke-miterlimit="10" stroke-width="0.1"/>
    <path id="路径_459" data-name="路径 459" d="M98.36,81.4v5.28h1.68" fill="none" stroke="#000" stroke-miterlimit="10" stroke-width="0.1"/>
    <path id="路径_460" data-name="路径 460" d="M100.28,81.4v5.28h-.24" fill="none" stroke="#000" stroke-miterlimit="10" stroke-width="0.1"/>
    <line id="直线_346" data-name="直线 346" y1="5.28" transform="translate(98.12 81.4)" fill="none" stroke="#000" stroke-miterlimit="10" stroke-width="0.1"/>
    <line id="直线_347" data-name="直线 347" x1="0.24" transform="translate(98.12 86.68)" fill="none" stroke="#000" stroke-miterlimit="10" stroke-width="0.1"/>
    <line id="直线_348" data-name="直线 348" y1="5.28" transform="translate(70.52 81.4)" fill="none" stroke="#000" stroke-miterlimit="10" stroke-width="0.1"/>
    <line id="直线_349" data-name="直线 349" x2="1.68" transform="translate(68.84 86.68)" fill="none" stroke="#000" stroke-miterlimit="10" stroke-width="0.1"/>
    <line id="直线_350" data-name="直线 350" y2="5.28" transform="translate(68.84 81.4)" fill="none" stroke="#000" stroke-miterlimit="10" stroke-width="0.1"/>
    <path id="路径_461" data-name="路径 461" d="M70.76,81.4v5.28h-.24" fill="none" stroke="#000" stroke-miterlimit="10" stroke-width="0.1"/>
    <line id="直线_351" data-name="直线 351" transform="translate(68.84 86.68)" fill="none" stroke="#000" stroke-miterlimit="10" stroke-width="0.1"/>
    <line id="直线_352" data-name="直线 352" y1="5.28" transform="translate(68.6 81.4)" fill="none" stroke="#000" stroke-miterlimit="10" stroke-width="0.1"/>
  </g>
</svg>
