<svg xmlns="http://www.w3.org/2000/svg" width="2.803" height="10.296" preserveAspectRatio="none">
  <g id="固定型轨250kg-2000-3" transform="translate(-240.63 -78.834)">
    <path id="路径_464" data-name="路径 464" d="M242.492,88.889a.041.041,0,0,0-.032.039h0m.162-.067h-.007m.334-.013a.079.079,0,0,0,.073-.055m.179-.551a.45.45,0,0,0,.022-.136m0-1.13a.2.2,0,0,0-.2-.2m-1.884,0a.2.2,0,0,0-.2.2m0,1.13a.449.449,0,0,0,.021.136m.179.551a.081.081,0,0,0,.074.055m.333.013h-.007m.162.067h0a.04.04,0,0,0-.032-.039m0,.115a.041.041,0,0,0,.035-.038m-.713-.121a.241.241,0,0,0,.22.166m-.429-.9a.589.589,0,0,0,.03.186m.331-1.676a.361.361,0,0,0-.361.36m2.606,0a.361.361,0,0,0-.361-.36m.332,1.676a.618.618,0,0,0,.029-.186m-.429.9a.243.243,0,0,0,.221-.166m-.713.121A.04.04,0,0,0,242.5,89" fill="none" stroke="#000" stroke-miterlimit="10" stroke-width="0.1"/>
    <path id="路径_465" data-name="路径 465" d="M242.84,86.68h-1.92m2.4,1.44v-.96m-.24,1.92.24-.72m-.72.72h.24" fill="none" stroke="#000" stroke-miterlimit="10" stroke-width="0.1"/>
    <path id="路径_466" data-name="路径 466" d="M242.621,89.022h.007" fill="none" stroke="#000" stroke-miterlimit="10" stroke-width="0.1"/>
    <path id="路径_467" data-name="路径 467" d="M242.36,89.08h.24m-.24,0h0m.24,0h-.24m.48,0h-.24m.48-.72-.24.48m.24-1.68v.96m-2.16-1.2h1.92m-1.92,1.2v-.96m0,1.68v-.48m.48.72h-.24m.48,0h-.24m.24,0h0m-.24,0h.24" fill="none" stroke="#000" stroke-miterlimit="10" stroke-width="0.1"/>
    <path id="路径_468" data-name="路径 468" d="M241.533,89.022h.007" fill="none" stroke="#000" stroke-miterlimit="10" stroke-width="0.1"/>
    <path id="路径_469" data-name="路径 469" d="M241.16,89.08h.24m-.72-.72.24.72m-.24-1.92v.96" fill="none" stroke="#000" stroke-miterlimit="10" stroke-width="0.1"/>
    <path id="路径_470" data-name="路径 470" d="M241,78.884a.12.12,0,0,0-.12.121" fill="none" stroke="#000" stroke-miterlimit="10" stroke-width="0.1"/>
    <line id="直线_365" data-name="直线 365" x1="2.16" transform="translate(240.92 79)" fill="none" stroke="#000" stroke-miterlimit="10" stroke-width="0.1"/>
    <path id="路径_471" data-name="路径 471" d="M243.283,79a.121.121,0,0,0-.12-.121m0,2.4a.121.121,0,0,0,.12-.121" fill="none" stroke="#000" stroke-miterlimit="10" stroke-width="0.1"/>
    <line id="直线_366" data-name="直线 366" x2="2.16" transform="translate(240.92 81.4)" fill="none" stroke="#000" stroke-miterlimit="10" stroke-width="0.1"/>
    <path id="路径_472" data-name="路径 472" d="M240.878,81.168a.12.12,0,0,0,.12.121" fill="none" stroke="#000" stroke-miterlimit="10" stroke-width="0.1"/>
    <path id="路径_473" data-name="路径 473" d="M240.68,79.24V81.4m.24-.24h2.16m-2.16-1.92v1.92m2.16.24V79.24m0,1.92V79.24h-2.16m2.16,2.16v5.28m-.24,0V81.4m-1.68,0v5.28m-.24,0V81.4" fill="none" stroke="#000" stroke-miterlimit="10" stroke-width="0.1"/>
  </g>
</svg>
