<?xml version="1.0" encoding="utf-8"?>
<svg viewBox="21.305 701.631 1012.44 44.121" height="45" width="1056" id="svg2" version="1.1" xmlns="http://www.w3.org/2000/svg">
  <defs id="defs6">
    <clipPath id="clipPath18" clipPathUnits="userSpaceOnUse">
      <path id="path16" d="M 0,0 H 12727 V 627 H 0 V 0"/>
    </clipPath>
  </defs>
  <g transform="matrix(0.08,0,0,-0.08,21.333333,749.33334)" id="g10">
    <g id="g12">
      <g id="g14">
        <path id="path20" style="fill:none;stroke:#000000;stroke-width:12;stroke-linecap:round;stroke-linejoin:round;stroke-miterlimit:10;stroke-dasharray:none;stroke-opacity:1" d="M 11,57 H 12645"/>
        <path id="path22" style="fill:none;stroke:#000000;stroke-width:12;stroke-linecap:round;stroke-linejoin:round;stroke-miterlimit:10;stroke-dasharray:none;stroke-opacity:1" d="M 4802,463 V 183"/>
        <path id="path24" style="fill:none;stroke:#000000;stroke-width:12;stroke-linecap:round;stroke-linejoin:round;stroke-miterlimit:10;stroke-dasharray:none;stroke-opacity:1" d="m 4801,183 h -6 v 280"/>
        <path id="path26" style="fill:none;stroke:#000000;stroke-width:12;stroke-linecap:round;stroke-linejoin:round;stroke-miterlimit:10;stroke-dasharray:none;stroke-opacity:1" d="M 4703,463 V 183 h -6"/>
        <path id="path28" style="fill:none;stroke:#000000;stroke-width:12;stroke-linecap:round;stroke-linejoin:round;stroke-miterlimit:10;stroke-dasharray:none;stroke-opacity:1" d="M 4696,183 V 463"/>
        <path id="path30" style="fill:none;stroke:#000000;stroke-width:12;stroke-linecap:round;stroke-linejoin:round;stroke-miterlimit:10;stroke-dasharray:none;stroke-opacity:1" d="m 4703,183 h 92"/>
        <path id="path32" style="fill:none;stroke:#000000;stroke-width:12;stroke-linecap:round;stroke-linejoin:round;stroke-miterlimit:10;stroke-dasharray:none;stroke-opacity:1" d="M 12041,463 V 183 h -6"/>
        <path id="path34" style="fill:none;stroke:#000000;stroke-width:12;stroke-linecap:round;stroke-linejoin:round;stroke-miterlimit:10;stroke-dasharray:none;stroke-opacity:1" d="M 12034,183 V 463"/>
        <path id="path36" style="fill:none;stroke:#000000;stroke-width:12;stroke-linecap:round;stroke-linejoin:round;stroke-miterlimit:10;stroke-dasharray:none;stroke-opacity:1" d="m 12041,183 h 92 v 280"/>
        <path id="path38" style="fill:none;stroke:#000000;stroke-width:12;stroke-linecap:round;stroke-linejoin:round;stroke-miterlimit:10;stroke-dasharray:none;stroke-opacity:1" d="M 12140,463 V 183"/>
        <path id="path40" style="fill:none;stroke:#000000;stroke-width:12;stroke-linecap:round;stroke-linejoin:round;stroke-miterlimit:10;stroke-dasharray:none;stroke-opacity:1" d="m 12139,183 h -6"/>
        <path id="path42" style="fill:none;stroke:#000000;stroke-width:12;stroke-linecap:round;stroke-linejoin:round;stroke-miterlimit:10;stroke-dasharray:none;stroke-opacity:1" d="M 10293,463 V 183 h 93 v 280"/>
        <path id="path44" style="fill:none;stroke:#000000;stroke-width:12;stroke-linecap:round;stroke-linejoin:round;stroke-miterlimit:10;stroke-dasharray:none;stroke-opacity:1" d="M 10392,463 V 183"/>
        <path id="path46" style="fill:none;stroke:#000000;stroke-width:12;stroke-linecap:round;stroke-linejoin:round;stroke-miterlimit:10;stroke-dasharray:none;stroke-opacity:1" d="m 10391,183 h -5"/>
        <path id="path48" style="fill:none;stroke:#000000;stroke-width:12;stroke-linecap:round;stroke-linejoin:round;stroke-miterlimit:10;stroke-dasharray:none;stroke-opacity:1" d="M 10287,183 V 463"/>
        <path id="path50" style="fill:none;stroke:#000000;stroke-width:12;stroke-linecap:round;stroke-linejoin:round;stroke-miterlimit:10;stroke-dasharray:none;stroke-opacity:1" d="m 10293,183 h -5"/>
        <path id="path52" style="fill:none;stroke:#000000;stroke-width:12;stroke-linecap:round;stroke-linejoin:round;stroke-miterlimit:10;stroke-dasharray:none;stroke-opacity:1" d="M 8529,463 V 183"/>
        <path id="path54" style="fill:none;stroke:#000000;stroke-width:12;stroke-linecap:round;stroke-linejoin:round;stroke-miterlimit:10;stroke-dasharray:none;stroke-opacity:1" d="m 8528,183 h -6 v 280"/>
        <path id="path56" style="fill:none;stroke:#000000;stroke-width:12;stroke-linecap:round;stroke-linejoin:round;stroke-miterlimit:10;stroke-dasharray:none;stroke-opacity:1" d="M 8430,463 V 183 h 92"/>
        <path id="path58" style="fill:none;stroke:#000000;stroke-width:12;stroke-linecap:round;stroke-linejoin:round;stroke-miterlimit:10;stroke-dasharray:none;stroke-opacity:1" d="M 8423,183 V 463"/>
        <path id="path60" style="fill:none;stroke:#000000;stroke-width:12;stroke-linecap:round;stroke-linejoin:round;stroke-miterlimit:10;stroke-dasharray:none;stroke-opacity:1" d="m 8430,183 h -6"/>
        <path id="path62" style="fill:none;stroke:#000000;stroke-width:12;stroke-linecap:round;stroke-linejoin:round;stroke-miterlimit:10;stroke-dasharray:none;stroke-opacity:1" d="M 6665,463 V 183"/>
        <path id="path64" style="fill:none;stroke:#000000;stroke-width:12;stroke-linecap:round;stroke-linejoin:round;stroke-miterlimit:10;stroke-dasharray:none;stroke-opacity:1" d="m 6664,183 h -5 v 280"/>
        <path id="path66" style="fill:none;stroke:#000000;stroke-width:12;stroke-linecap:round;stroke-linejoin:round;stroke-miterlimit:10;stroke-dasharray:none;stroke-opacity:1" d="M 6566,463 V 183 h -5"/>
        <path id="path68" style="fill:none;stroke:#000000;stroke-width:12;stroke-linecap:round;stroke-linejoin:round;stroke-miterlimit:10;stroke-dasharray:none;stroke-opacity:1" d="M 6560,183 V 463"/>
        <path id="path70" style="fill:none;stroke:#000000;stroke-width:12;stroke-linecap:round;stroke-linejoin:round;stroke-miterlimit:10;stroke-dasharray:none;stroke-opacity:1" d="m 6566,183 h 93"/>
        <path id="path72" style="fill:none;stroke:#000000;stroke-width:12;stroke-linecap:round;stroke-linejoin:round;stroke-miterlimit:10;stroke-dasharray:none;stroke-opacity:1" d="M 622,463 V 183"/>
        <path id="path74" style="fill:none;stroke:#000000;stroke-width:12;stroke-linecap:round;stroke-linejoin:round;stroke-miterlimit:10;stroke-dasharray:none;stroke-opacity:1" d="m 621,183 h -5 v 280"/>
        <path id="path76" style="fill:none;stroke:#000000;stroke-width:12;stroke-linecap:round;stroke-linejoin:round;stroke-miterlimit:10;stroke-dasharray:none;stroke-opacity:1" d="M 523,463 V 183 h 93"/>
        <path id="path78" style="fill:none;stroke:#000000;stroke-width:12;stroke-linecap:round;stroke-linejoin:round;stroke-miterlimit:10;stroke-dasharray:none;stroke-opacity:1" d="m 523,183 h -6 v 280"/>
        <path id="path80" style="fill:none;stroke:#000000;stroke-width:12;stroke-linecap:round;stroke-linejoin:round;stroke-miterlimit:10;stroke-dasharray:none;stroke-opacity:1" d="M 2938,463 V 183"/>
        <path id="path82" style="fill:none;stroke:#000000;stroke-width:12;stroke-linecap:round;stroke-linejoin:round;stroke-miterlimit:10;stroke-dasharray:none;stroke-opacity:1" d="m 2937,183 h -5 v 280"/>
        <path id="path84" style="fill:none;stroke:#000000;stroke-width:12;stroke-linecap:round;stroke-linejoin:round;stroke-miterlimit:10;stroke-dasharray:none;stroke-opacity:1" d="M 2839,463 V 183 h 93"/>
        <path id="path86" style="fill:none;stroke:#000000;stroke-width:12;stroke-linecap:round;stroke-linejoin:round;stroke-miterlimit:10;stroke-dasharray:none;stroke-opacity:1" d="M 2833,183 V 463"/>
        <path id="path88" style="fill:none;stroke:#000000;stroke-width:12;stroke-linecap:round;stroke-linejoin:round;stroke-miterlimit:10;stroke-dasharray:none;stroke-opacity:1" d="m 2839,183 h -5"/>
        <path id="path90" style="fill:none;stroke:#000000;stroke-width:12;stroke-linecap:round;stroke-linejoin:round;stroke-miterlimit:10;stroke-dasharray:none;stroke-opacity:1" d="m 11,164 v -59 h 12634 v 59 H 11"/>
        <path id="path92" style="fill:none;stroke:#000000;stroke-width:12;stroke-linecap:round;stroke-linejoin:round;stroke-miterlimit:10;stroke-dasharray:none;stroke-opacity:1" d="m 132,135.5 c 0,8.00813 -6.49187,14.5 -14.5,14.5 -8.00813,0 -14.5,-6.49187 -14.5,-14.5 0,-8.00813 6.49187,-14.5 14.5,-14.5 8.00813,0 14.5,6.49187 14.5,14.5"/>
        <path id="path94" style="fill:none;stroke:#000000;stroke-width:12;stroke-linecap:round;stroke-linejoin:round;stroke-miterlimit:10;stroke-dasharray:none;stroke-opacity:1" d="m 12555,135.5 c 0,8.00813 -6.492,14.5 -14.5,14.5 -8.008,0 -14.5,-6.49187 -14.5,-14.5 0,-8.00813 6.492,-14.5 14.5,-14.5 8.008,0 14.5,6.49187 14.5,14.5"/>
        <path id="path96" style="fill:none;stroke:#000000;stroke-width:12;stroke-linecap:round;stroke-linejoin:round;stroke-miterlimit:10;stroke-dasharray:none;stroke-opacity:1" d="M 11,183 H 517"/>
        <path id="path98" style="fill:none;stroke:#000000;stroke-width:12;stroke-linecap:round;stroke-linejoin:round;stroke-miterlimit:10;stroke-dasharray:none;stroke-opacity:1" d="M 621,183 H 2834"/>
        <path id="path100" style="fill:none;stroke:#000000;stroke-width:12;stroke-linecap:round;stroke-linejoin:round;stroke-miterlimit:10;stroke-dasharray:none;stroke-opacity:1" d="M 2937,183 H 4697"/>
        <path id="path102" style="fill:none;stroke:#000000;stroke-width:12;stroke-linecap:round;stroke-linejoin:round;stroke-miterlimit:10;stroke-dasharray:none;stroke-opacity:1" d="M 4801,183 H 6561"/>
        <path id="path104" style="fill:none;stroke:#000000;stroke-width:12;stroke-linecap:round;stroke-linejoin:round;stroke-miterlimit:10;stroke-dasharray:none;stroke-opacity:1" d="M 6664,183 H 8424"/>
        <path id="path106" style="fill:none;stroke:#000000;stroke-width:12;stroke-linecap:round;stroke-linejoin:round;stroke-miterlimit:10;stroke-dasharray:none;stroke-opacity:1" d="m 8528,183 h 1760"/>
        <path id="path108" style="fill:none;stroke:#000000;stroke-width:12;stroke-linecap:round;stroke-linejoin:round;stroke-miterlimit:10;stroke-dasharray:none;stroke-opacity:1" d="m 10391,183 h 1644"/>
        <path id="path110" style="fill:none;stroke:#000000;stroke-width:12;stroke-linecap:round;stroke-linejoin:round;stroke-miterlimit:10;stroke-dasharray:none;stroke-opacity:1" d="m 12139,183 h 506"/>
        <path id="path112" style="fill:none;stroke:#000000;stroke-width:12;stroke-linecap:round;stroke-linejoin:round;stroke-miterlimit:10;stroke-dasharray:none;stroke-opacity:1" d="m 11,164 v 19"/>
        <path id="path114" style="fill:none;stroke:#000000;stroke-width:12;stroke-linecap:round;stroke-linejoin:round;stroke-miterlimit:10;stroke-dasharray:none;stroke-opacity:1" d="M 12645,183 V 164"/>
        <path id="path116" style="fill:none;stroke:#000000;stroke-width:12;stroke-linecap:round;stroke-linejoin:round;stroke-miterlimit:10;stroke-dasharray:none;stroke-opacity:1" d="M 12645,105 V 95 H 11 v 10"/>
        <path id="path118" style="fill:none;stroke:#000000;stroke-width:12;stroke-linecap:round;stroke-linejoin:round;stroke-miterlimit:10;stroke-dasharray:none;stroke-opacity:1" d="M 11,95 V 66 h 12634 v 29"/>
        <path id="path120" style="fill:none;stroke:#000000;stroke-width:12;stroke-linecap:round;stroke-linejoin:round;stroke-miterlimit:10;stroke-dasharray:none;stroke-opacity:1" d="M 12645,66 V 58 H 11 v 8"/>
        <path id="path122" style="fill:none;stroke:#000000;stroke-width:12;stroke-linecap:round;stroke-linejoin:round;stroke-miterlimit:10;stroke-dasharray:none;stroke-opacity:1" d="m 11,58 v -1 h 12634 v 1"/>
        <path id="path124" style="fill:#000000;fill-opacity:1;fill-rule:nonzero;stroke:#000000;stroke-width:12.5;stroke-linecap:round;stroke-linejoin:round;stroke-miterlimit:10;stroke-dasharray:none;stroke-opacity:1" d="m 16,57 -1,3 -2,2 H 9 L 7,60 6,57 7,54 9,52 h 4 l 2,2 z"/>
        <path id="path126" style="fill:#000000;fill-opacity:1;fill-rule:nonzero;stroke:#000000;stroke-width:12.5;stroke-linecap:round;stroke-linejoin:round;stroke-miterlimit:10;stroke-dasharray:none;stroke-opacity:1" d="m 12650,57 -1,3 -2,2 h -4 l -2,-2 -1,-3 1,-3 2,-2 h 4 l 2,2 z"/>
        <path id="path128" style="fill:none;stroke:#000000;stroke-width:12;stroke-linecap:round;stroke-linejoin:round;stroke-miterlimit:10;stroke-dasharray:none;stroke-opacity:1" d="M 11,583 V 470 H 12645 V 583 H 11"/>
        <path id="path130" style="fill:none;stroke:#000000;stroke-width:12;stroke-linecap:round;stroke-linejoin:round;stroke-miterlimit:10;stroke-dasharray:none;stroke-opacity:1" d="m 447,526.5 c 0,8.00812 -6.49188,14.5 -14.5,14.5 -8.00812,0 -14.5,-6.49188 -14.5,-14.5 0,-8.00812 6.49188,-14.5 14.5,-14.5 8.00812,0 14.5,6.49188 14.5,14.5"/>
        <path id="path132" style="fill:none;stroke:#000000;stroke-width:12;stroke-linecap:round;stroke-linejoin:round;stroke-miterlimit:10;stroke-dasharray:none;stroke-opacity:1" d="m 12239,526.5 c 0,8.00812 -6.492,14.5 -14.5,14.5 -8.008,0 -14.5,-6.49188 -14.5,-14.5 0,-8.00812 6.492,-14.5 14.5,-14.5 8.008,0 14.5,6.49188 14.5,14.5"/>
        <path id="path134" style="fill:none;stroke:#000000;stroke-width:12;stroke-linecap:round;stroke-linejoin:round;stroke-miterlimit:10;stroke-dasharray:none;stroke-opacity:1" d="m 12555,526.5 c 0,8.00812 -6.492,14.5 -14.5,14.5 -8.008,0 -14.5,-6.49188 -14.5,-14.5 0,-8.00812 6.492,-14.5 14.5,-14.5 8.008,0 14.5,6.49188 14.5,14.5"/>
        <path id="path136" style="fill:none;stroke:#000000;stroke-width:12;stroke-linecap:round;stroke-linejoin:round;stroke-miterlimit:10;stroke-dasharray:none;stroke-opacity:1" d="m 132,526.5 c 0,8.00812 -6.49187,14.5 -14.5,14.5 -8.00813,0 -14.5,-6.49188 -14.5,-14.5 0,-8.00812 6.49187,-14.5 14.5,-14.5 8.00813,0 14.5,6.49188 14.5,14.5"/>
        <path id="path138" style="fill:none;stroke:#000000;stroke-width:12;stroke-linecap:round;stroke-linejoin:round;stroke-miterlimit:10;stroke-dasharray:none;stroke-opacity:1" d="m 11,583 v 6 h 12634 v -6"/>
        <path id="path140" style="fill:none;stroke:#000000;stroke-width:12;stroke-linecap:round;stroke-linejoin:round;stroke-miterlimit:10;stroke-dasharray:none;stroke-opacity:1" d="m 12645,470 v -7 H 11 v 7"/>
      </g>
    </g>
  </g>
</svg>