<svg xmlns="http://www.w3.org/2000/svg" width="7.3" height="140.5" preserveAspectRatio="none">
  <g id="钢结构3" transform="translate(14.33 -176.71)">
    <path id="路径_495" data-name="路径 495" d="M-10.195,189.2a.205.205,0,0,0-.2-.205.205.205,0,0,0-.2.205.205.205,0,0,0,.2.205.205.205,0,0,0,.2-.205m0,112.68a.205.205,0,0,0-.2-.205.205.205,0,0,0-.2.205.205.205,0,0,0,.2.2.205.205,0,0,0,.2-.2m0,2.52a.205.205,0,0,0-.2-.2.205.205,0,0,0-.2.2.205.205,0,0,0,.2.205.205.205,0,0,0,.2-.205m0-112.68a.205.205,0,0,0-.2-.205.205.205,0,0,0-.2.205.205.205,0,0,0,.2.205.205.205,0,0,0,.2-.205m.06,0a.385.385,0,0,0-.385-.384.385.385,0,0,0-.385.384.385.385,0,0,0,.385.384.385.385,0,0,0,.385-.384m0,112.8a.385.385,0,0,0-.385-.384.385.385,0,0,0-.385.384.385.385,0,0,0,.385.384.385.385,0,0,0,.385-.384m0-115.44a.385.385,0,0,0-.385-.384.385.385,0,0,0-.385.384.385.385,0,0,0,.385.384.385.385,0,0,0,.385-.384m0,112.8a.385.385,0,0,0-.385-.384.385.385,0,0,0-.385.384.385.385,0,0,0,.385.384.385.385,0,0,0,.385-.384" fill="none" stroke="#000" stroke-miterlimit="10" stroke-width="0.1"/>
    <path id="路径_496" data-name="路径 496" d="M-9,316.92h-.48M-9,177h-.48M-9,316.92V177m-1.2,138.24v-3.36m0-1.92v-4.32m0-1.92V303m0-1.92v-30m0-1.2V224.04m0-1.44V192.84m0-1.92v-.72m0-1.92v-4.56m0-1.92v-3.12M-12.12,177V316.92m0-139.92h.48m.72,1.68v3.12m0,1.92v4.56m0,1.92v.72m0,1.92V222.6m0,1.44v45.84m0,1.2v30m0,1.92v.72m0,1.92v4.32m0,1.92v3.36m-1.2,1.68h.48m2.4-92.88h-2.64m2.64-1.44v1.44m-2.64,0V222.6h2.64m0,48.48h-2.64m0-1.2h2.64v1.2m-2.64,0v-1.2" fill="none" stroke="#000" stroke-miterlimit="10" stroke-width="0.1"/>
    <path id="路径_497" data-name="路径 497" d="M-10.195,316.04a.205.205,0,0,0-.2-.205.205.205,0,0,0-.2.205.205.205,0,0,0,.2.2.205.205,0,0,0,.2-.2m0-138.36a.205.205,0,0,0-.2-.2.205.205,0,0,0-.2.2.205.205,0,0,0,.2.205.205.205,0,0,0,.2-.205m0,5.04a.205.205,0,0,0-.2-.205.205.205,0,0,0-.2.205.205.205,0,0,0,.2.205.205.205,0,0,0,.2-.205m0,128.16a.205.205,0,0,0-.2-.205.205.205,0,0,0-.2.205.205.205,0,0,0,.2.2.205.205,0,0,0,.2-.2m.053,5.16a.378.378,0,0,0-.378-.378.378.378,0,0,0-.378.378.378.378,0,0,0,.378.378.378.378,0,0,0,.378-.378m0-138.48a.378.378,0,0,0-.378-.378.378.378,0,0,0-.378.378.378.378,0,0,0,.378.378.378.378,0,0,0,.378-.378m0,5.16a.378.378,0,0,0-.378-.378.378.378,0,0,0-.378.378.378.378,0,0,0,.378.378.378.378,0,0,0,.378-.378m0,128.16a.378.378,0,0,0-.378-.378.378.378,0,0,0-.378.378.378.378,0,0,0,.378.378.378.378,0,0,0,.378-.378" fill="none" stroke="#000" stroke-miterlimit="10" stroke-width="0.1"/>
    <path id="路径_498" data-name="路径 498" d="M-10.2,302.28h-.72v-.48m.24-.24.48.24v.48m-.72-.48.24-.24m0-118.32-.24-.24.24-.48h.24l.24.24-.24.48Zm.48,121.44-.48.24-.24-.24v-.24l.24-.24.48.24Zm-.48,11.76-.24-.48.24-.24m.48.48-.24.24h-.24m.24-.48.24.24m-.48-.48.24.24m-.24-138-.24-.24.24-.24h.24m.24.24-.24.24h-.24m.24-.48.24.24m-.48,14.4.48-.24m-.72,0,.24.24m-.24-.48v.24m.72,0v-.24l-.48-.24-.24.24m.24,119.76-.24-.48.24-.24h.24m.24.24-.24.48h-.24m.24-.72.24.24m-.48-121.2.48-.24m-.72,0,.24.24m-.24-.72v.48m.72,0V189h-.72m-.72,116.64v-1.92h2.16m0,1.92h-2.16m2.16-1.92v1.92m0,6.24v-1.92m-2.16,1.92h2.16m-2.16-1.92v1.92m2.16-1.92h-2.16m2.16-126.24V181.8m-2.16,1.92h2.16m-2.16-1.92v1.92m2.16-1.92h-2.16m0-3.12h2.16m-2.16-1.92v1.92m2.16,0v-1.92h-2.16m0,140.4h2.16m-2.16-1.92v1.92m2.16-1.92h-2.16m2.16,1.92v-1.92m0-125.04v-1.92m-2.16,1.92h2.16m0-1.92h-2.16v1.92m2.16,2.64v-1.92m-2.16,1.92h2.16m-2.16-1.92v1.92m2.16-1.92h-2.16M-9.48,303h-2.16v-1.92m2.16,0V303m-2.16-1.92h2.16m2.4-119.52v-.24m0,.24h-.96m.96-.24h-.96m-6-2.4v.24m0-.24h.96m-.96.24h.96m6,135.6v-.24h-.96m.96.24h-.96m-6-2.4v.24h.96m-.96-.24h.96m5.04,4.8H-9m-3.12,0h-.96m5.04-7.2v7.2m-5.04-7.2h.96m1.2,0h.72m1.2,0h.96m-5.04,7.2v-7.2m5.04-126H-9m-1.2,0h-.72m-1.2,0h-.96v-7.2h.96m3.12,0h.96v7.2" fill="none" stroke="#000" stroke-miterlimit="10" stroke-width="0.1"/>
    <path id="路径_499" data-name="路径 499" d="M-13.015,177.183a.338.338,0,0,0-.129-.026.32.32,0,0,0-.32.32.321.321,0,0,0,.32.321.339.339,0,0,0,.129-.027m0,4.795a.321.321,0,0,0-.129-.027.321.321,0,0,0-.32.321m0,0a.32.32,0,0,0,.32.32.321.321,0,0,0,.129-.027" fill="none" stroke="#000" stroke-miterlimit="10" stroke-width="0.1"/>
    <path id="路径_500" data-name="路径 500" d="M-7.08,183.96h-.96m-5.04,0h-1.2v-7.2h1.2m5.04,0h.96v7.2" fill="none" stroke="#000" stroke-miterlimit="10" stroke-width="0.1"/>
    <path id="路径_501" data-name="路径 501" d="M-7.887,177.771a.335.335,0,0,0,.129.027.321.321,0,0,0,.32-.321m0,0a.32.32,0,0,0-.32-.32.334.334,0,0,0-.129.026m0,5.97a.317.317,0,0,0,.129.027.321.321,0,0,0,.32-.32.321.321,0,0,0-.32-.321.318.318,0,0,0-.129.027m-5.128,133.279a.321.321,0,0,0-.129-.027.32.32,0,0,0-.32.32m0,0a.321.321,0,0,0,.32.321.321.321,0,0,0,.129-.027" fill="none" stroke="#000" stroke-miterlimit="10" stroke-width="0.1"/>
    <path id="路径_502" data-name="路径 502" d="M-7.08,317.16h-.96m-5.04,0h-1.2v-7.2m7.2,0v7.2" fill="none" stroke="#000" stroke-miterlimit="10" stroke-width="0.1"/>
    <path id="路径_503" data-name="路径 503" d="M-7.887,311.05a.334.334,0,0,0,.129.026.32.32,0,0,0,.32-.32m0,0a.32.32,0,0,0-.32-.32.334.334,0,0,0-.129.026m0,5.97a.317.317,0,0,0,.129.027.321.321,0,0,0,.32-.321.321.321,0,0,0-.32-.32.317.317,0,0,0-.129.027" fill="none" stroke="#000" stroke-miterlimit="10" stroke-width="0.1"/>
    <path id="路径_504" data-name="路径 504" d="M-14.28,309.96h1.2m5.04,0h.96" fill="none" stroke="#000" stroke-miterlimit="10" stroke-width="0.1"/>
    <path id="路径_505" data-name="路径 505" d="M-13.015,310.462a.338.338,0,0,0-.129-.026.32.32,0,0,0-.32.32.32.32,0,0,0,.32.32.338.338,0,0,0,.129-.026" fill="none" stroke="#000" stroke-miterlimit="10" stroke-width="0.1"/>
    <line id="直线_619" data-name="直线 619" y1="0.24" transform="translate(-12.12 176.76)" fill="none" stroke="#000" stroke-miterlimit="10" stroke-width="0.1"/>
    <path id="路径_506" data-name="路径 506" d="M-9,177v-.24h-3.12" fill="none" stroke="#000" stroke-miterlimit="10" stroke-width="0.1"/>
    <line id="直线_620" data-name="直线 620" y1="0.24" transform="translate(-9 316.92)" fill="none" stroke="#000" stroke-miterlimit="10" stroke-width="0.1"/>
    <path id="路径_507" data-name="路径 507" d="M-9,317.16h-3.12v-.24" fill="none" stroke="#000" stroke-miterlimit="10" stroke-width="0.1"/>
  </g>
</svg>
