<?xml version="1.0" encoding="utf-8"?>
<svg viewBox="41.047 86.227 45.66 641.034" height="799" width="57" id="svg2" version="1.1" xmlns="http://www.w3.org/2000/svg">
  <defs id="defs6">
    <clipPath id="clipPath18" clipPathUnits="userSpaceOnUse">
      <path id="path16" d="M 0,0 H 1132 V 8593 H 0 V 0"/>
    </clipPath>
  </defs>
  <g transform="matrix(0.08,0,0,-0.08,21.333333,749.33334)" id="g10">
    <g id="g12">
      <g clip-path="url(#clipPath18)" id="g14">
        <path id="path20" style="fill:none;stroke:#000000;stroke-width:12;stroke-linecap:round;stroke-linejoin:round;stroke-miterlimit:10;stroke-dasharray:none;stroke-opacity:1" d="m 547,362.5 c 0,8.56042 -6.93958,15.5 -15.5,15.5 -8.56042,0 -15.5,-6.93958 -15.5,-15.5 0,-8.56042 6.93958,-15.5 15.5,-15.5 8.56042,0 15.5,6.93958 15.5,15.5"/>
        <path id="path22" style="fill:none;stroke:#000000;stroke-width:12;stroke-linecap:round;stroke-linejoin:round;stroke-miterlimit:10;stroke-dasharray:none;stroke-opacity:1" d="m 547,999.5 c 0,8.5604 -6.93958,15.5 -15.5,15.5 -8.56042,0 -15.5,-6.9396 -15.5,-15.5 0,-8.56042 6.93958,-15.5 15.5,-15.5 8.56042,0 15.5,6.93958 15.5,15.5"/>
        <path id="path24" style="fill:none;stroke:#000000;stroke-width:12;stroke-linecap:round;stroke-linejoin:round;stroke-miterlimit:10;stroke-dasharray:none;stroke-opacity:1" d="m 547,7566.5 c 0,8.5605 -6.93958,15.5 -15.5,15.5 -8.56042,0 -15.5,-6.9395 -15.5,-15.5 0,-8.5606 6.93958,-15.5 15.5,-15.5 8.56042,0 15.5,6.9394 15.5,15.5"/>
        <path id="path26" style="fill:none;stroke:#000000;stroke-width:12;stroke-linecap:round;stroke-linejoin:round;stroke-miterlimit:10;stroke-dasharray:none;stroke-opacity:1" d="m 547,8202.5 c 0,8.5606 -6.93958,15.5 -15.5,15.5 -8.56042,0 -15.5,-6.9394 -15.5,-15.5 0,-8.5605 6.93958,-15.5 15.5,-15.5 8.56042,0 15.5,6.9395 15.5,15.5"/>
        <path id="path28" style="fill:none;stroke:#000000;stroke-width:12;stroke-linecap:round;stroke-linejoin:round;stroke-miterlimit:10;stroke-dasharray:none;stroke-opacity:1" d="m 547,7725.5 c 0,8.5605 -6.93958,15.5 -15.5,15.5 -8.56042,0 -15.5,-6.9395 -15.5,-15.5 0,-8.5606 6.93958,-15.5 15.5,-15.5 8.56042,0 15.5,6.9394 15.5,15.5"/>
        <path id="path30" style="fill:none;stroke:#000000;stroke-width:12;stroke-linecap:round;stroke-linejoin:round;stroke-miterlimit:10;stroke-dasharray:none;stroke-opacity:1" d="m 547,521.5 c 0,8.56042 -6.93958,15.5 -15.5,15.5 -8.56042,0 -15.5,-6.93958 -15.5,-15.5 0,-8.56042 6.93958,-15.5 15.5,-15.5 8.56042,0 15.5,6.93958 15.5,15.5"/>
        <path id="path32" style="fill:none;stroke:#000000;stroke-width:12;stroke-linecap:round;stroke-linejoin:round;stroke-miterlimit:10;stroke-dasharray:none;stroke-opacity:1" d="m 547,840.5 c 0,8.56042 -6.93958,15.5 -15.5,15.5 -8.56042,0 -15.5,-6.93958 -15.5,-15.5 0,-8.56042 6.93958,-15.5 15.5,-15.5 8.56042,0 15.5,6.93958 15.5,15.5"/>
        <path id="path34" style="fill:none;stroke:#000000;stroke-width:12;stroke-linecap:round;stroke-linejoin:round;stroke-miterlimit:10;stroke-dasharray:none;stroke-opacity:1" d="m 547,8043.5 c 0,8.5605 -6.93958,15.5 -15.5,15.5 -8.56042,0 -15.5,-6.9395 -15.5,-15.5 0,-8.5606 6.93958,-15.5 15.5,-15.5 8.56042,0 15.5,6.9394 15.5,15.5"/>
        <path id="path36" style="fill:none;stroke:#000000;stroke-width:12;stroke-linecap:round;stroke-linejoin:round;stroke-miterlimit:10;stroke-dasharray:none;stroke-opacity:1" d="m 561,840.5 c 0,16.29242 -13.20758,29.5 -29.5,29.5 -16.29242,0 -29.5,-13.20758 -29.5,-29.5 0,-16.29242 13.20758,-29.5 29.5,-29.5 16.29242,0 29.5,13.20758 29.5,29.5"/>
        <path id="path38" style="fill:none;stroke:#000000;stroke-width:12;stroke-linecap:round;stroke-linejoin:round;stroke-miterlimit:10;stroke-dasharray:none;stroke-opacity:1" d="m 561,999.5 c 0,16.2924 -13.20758,29.5 -29.5,29.5 -16.29242,0 -29.5,-13.2076 -29.5,-29.5 0,-16.29242 13.20758,-29.5 29.5,-29.5 16.29242,0 29.5,13.20758 29.5,29.5"/>
        <path id="path40" style="fill:none;stroke:#000000;stroke-width:12;stroke-linecap:round;stroke-linejoin:round;stroke-miterlimit:10;stroke-dasharray:none;stroke-opacity:1" d="m 561,362.5 c 0,16.29239 -13.20758,29.5 -29.5,29.5 -16.29242,0 -29.5,-13.20761 -29.5,-29.5 0,-16.29239 13.20758,-29.5 29.5,-29.5 16.29242,0 29.5,13.20761 29.5,29.5"/>
        <path id="path42" style="fill:none;stroke:#000000;stroke-width:12;stroke-linecap:round;stroke-linejoin:round;stroke-miterlimit:10;stroke-dasharray:none;stroke-opacity:1" d="m 561,7725.5 c 0,16.2925 -13.20758,29.5 -29.5,29.5 -16.29242,0 -29.5,-13.2075 -29.5,-29.5 0,-16.2925 13.20758,-29.5 29.5,-29.5 16.29242,0 29.5,13.2075 29.5,29.5"/>
        <path id="path44" style="fill:none;stroke:#000000;stroke-width:12;stroke-linecap:round;stroke-linejoin:round;stroke-miterlimit:10;stroke-dasharray:none;stroke-opacity:1" d="m 561,8043.5 c 0,16.2925 -13.20758,29.5 -29.5,29.5 -16.29242,0 -29.5,-13.2075 -29.5,-29.5 0,-16.2925 13.20758,-29.5 29.5,-29.5 16.29242,0 29.5,13.2075 29.5,29.5"/>
        <path id="path46" style="fill:none;stroke:#000000;stroke-width:12;stroke-linecap:round;stroke-linejoin:round;stroke-miterlimit:10;stroke-dasharray:none;stroke-opacity:1" d="m 561,521.5 c 0,16.29242 -13.20758,29.5 -29.5,29.5 -16.29242,0 -29.5,-13.20758 -29.5,-29.5 0,-16.29239 13.20758,-29.5 29.5,-29.5 16.29242,0 29.5,13.20761 29.5,29.5"/>
        <path id="path48" style="fill:none;stroke:#000000;stroke-width:12;stroke-linecap:round;stroke-linejoin:round;stroke-miterlimit:10;stroke-dasharray:none;stroke-opacity:1" d="m 561,8202.5 c 0,16.292 -13.20758,29.5 -29.5,29.5 -16.29242,0 -29.5,-13.208 -29.5,-29.5 0,-16.2925 13.20758,-29.5 29.5,-29.5 16.29242,0 29.5,13.2075 29.5,29.5"/>
        <path id="path50" style="fill:none;stroke:#000000;stroke-width:12;stroke-linecap:round;stroke-linejoin:round;stroke-miterlimit:10;stroke-dasharray:none;stroke-opacity:1" d="m 561,7566.5 c 0,16.2925 -13.20758,29.5 -29.5,29.5 -16.29242,0 -29.5,-13.2075 -29.5,-29.5 0,-16.2925 13.20758,-29.5 29.5,-29.5 16.29242,0 29.5,13.2075 29.5,29.5"/>
        <path id="path52" style="fill:none;stroke:#000000;stroke-width:12;stroke-linecap:round;stroke-linejoin:round;stroke-miterlimit:10;stroke-dasharray:none;stroke-opacity:1" d="m 507,376 24,14 24,-14 v -28 l -24,-14 -24,14 v 28"/>
        <path id="path54" style="fill:none;stroke:#000000;stroke-width:12;stroke-linecap:round;stroke-linejoin:round;stroke-miterlimit:10;stroke-dasharray:none;stroke-opacity:1" d="m 507,853 24,14 24,-14 v -27"/>
        <path id="path56" style="fill:none;stroke:#000000;stroke-width:12;stroke-linecap:round;stroke-linejoin:round;stroke-miterlimit:10;stroke-dasharray:none;stroke-opacity:1" d="m 555,826 -24,-14 -24,14 v 27"/>
        <path id="path58" style="fill:none;stroke:#000000;stroke-width:12;stroke-linecap:round;stroke-linejoin:round;stroke-miterlimit:10;stroke-dasharray:none;stroke-opacity:1" d="m 507,535 24,14 24,-14 v -28 l -24,-13 -24,13 v 28"/>
        <path id="path60" style="fill:none;stroke:#000000;stroke-width:12;stroke-linecap:round;stroke-linejoin:round;stroke-miterlimit:10;stroke-dasharray:none;stroke-opacity:1" d="m 507,8029 v 28 l 24,14 24,-14 v -28 l -24,-13 -24,13"/>
        <path id="path62" style="fill:none;stroke:#000000;stroke-width:12;stroke-linecap:round;stroke-linejoin:round;stroke-miterlimit:10;stroke-dasharray:none;stroke-opacity:1" d="m 507,7739 24,13 24,-13 v -28 l -24,-14 -24,14 v 28"/>
        <path id="path64" style="fill:none;stroke:#000000;stroke-width:12;stroke-linecap:round;stroke-linejoin:round;stroke-miterlimit:10;stroke-dasharray:none;stroke-opacity:1" d="m 507,985 v 28 l 24,13 24,-13 v -28 l -24,-14 -24,14"/>
        <path id="path66" style="fill:none;stroke:#000000;stroke-width:12;stroke-linecap:round;stroke-linejoin:round;stroke-miterlimit:10;stroke-dasharray:none;stroke-opacity:1" d="m 507,8216 24,14"/>
        <path id="path68" style="fill:none;stroke:#000000;stroke-width:12;stroke-linecap:round;stroke-linejoin:round;stroke-miterlimit:10;stroke-dasharray:none;stroke-opacity:1" d="m 555,8216 v -27 l -24,-14"/>
        <path id="path70" style="fill:none;stroke:#000000;stroke-width:12;stroke-linecap:round;stroke-linejoin:round;stroke-miterlimit:10;stroke-dasharray:none;stroke-opacity:1" d="m 531,8175 -24,14 v 27"/>
        <path id="path72" style="fill:none;stroke:#000000;stroke-width:12;stroke-linecap:round;stroke-linejoin:round;stroke-miterlimit:10;stroke-dasharray:none;stroke-opacity:1" d="m 531,8230 24,-14"/>
        <path id="path74" style="fill:none;stroke:#000000;stroke-width:12;stroke-linecap:round;stroke-linejoin:round;stroke-miterlimit:10;stroke-dasharray:none;stroke-opacity:1" d="m 507,7579 24,14 24,-14 v -27 l -24,-14 -24,14 v 27"/>
        <path id="path76" style="fill:none;stroke:#000000;stroke-width:12;stroke-linecap:round;stroke-linejoin:round;stroke-miterlimit:10;stroke-dasharray:none;stroke-opacity:1" d="M 456,764 V 915 H 607 V 764 H 456"/>
        <path id="path78" style="fill:none;stroke:#000000;stroke-width:12;stroke-linecap:round;stroke-linejoin:round;stroke-miterlimit:10;stroke-dasharray:none;stroke-opacity:1" d="m 456,7649 h 151 v 151 H 456 v -151"/>
        <path id="path80" style="fill:none;stroke:#000000;stroke-width:12;stroke-linecap:round;stroke-linejoin:round;stroke-miterlimit:10;stroke-dasharray:none;stroke-opacity:1" d="M 607,7490 H 456 v 151 h 151 v -151"/>
        <path id="path82" style="fill:none;stroke:#000000;stroke-width:12;stroke-linecap:round;stroke-linejoin:round;stroke-miterlimit:10;stroke-dasharray:none;stroke-opacity:1" d="M 456,438 H 607"/>
        <path id="path84" style="fill:none;stroke:#000000;stroke-width:12;stroke-linecap:round;stroke-linejoin:round;stroke-miterlimit:10;stroke-dasharray:none;stroke-opacity:1" d="M 607,438 V 286 H 456 v 152"/>
        <path id="path86" style="fill:none;stroke:#000000;stroke-width:12;stroke-linecap:round;stroke-linejoin:round;stroke-miterlimit:10;stroke-dasharray:none;stroke-opacity:1" d="M 607,8278 H 456 v -151 h 151 v 151"/>
        <path id="path88" style="fill:none;stroke:#000000;stroke-width:12;stroke-linecap:round;stroke-linejoin:round;stroke-miterlimit:10;stroke-dasharray:none;stroke-opacity:1" d="M 456,8119 H 607"/>
        <path id="path90" style="fill:none;stroke:#000000;stroke-width:12;stroke-linecap:round;stroke-linejoin:round;stroke-miterlimit:10;stroke-dasharray:none;stroke-opacity:1" d="M 607,8119 V 7968 H 456 v 151"/>
        <path id="path92" style="fill:none;stroke:#000000;stroke-width:12;stroke-linecap:round;stroke-linejoin:round;stroke-miterlimit:10;stroke-dasharray:none;stroke-opacity:1" d="M 456,1074 V 923 h 151 v 151 H 456"/>
        <path id="path94" style="fill:none;stroke:#000000;stroke-width:12;stroke-linecap:round;stroke-linejoin:round;stroke-miterlimit:10;stroke-dasharray:none;stroke-opacity:1" d="M 456,597 V 446 H 607 V 597 H 456"/>
        <path id="path96" style="fill:none;stroke:#000000;stroke-width:12;stroke-linecap:round;stroke-linejoin:round;stroke-miterlimit:10;stroke-dasharray:none;stroke-opacity:1" d="m 432,2989 v -100 h 199 v 100 H 432"/>
        <path id="path98" style="fill:none;stroke:#000000;stroke-width:12;stroke-linecap:round;stroke-linejoin:round;stroke-miterlimit:10;stroke-dasharray:none;stroke-opacity:1" d="M 631,5576 H 432 v 99 h 199 v -99"/>
        <path id="path100" style="fill:none;stroke:#000000;stroke-width:12;stroke-linecap:round;stroke-linejoin:round;stroke-miterlimit:10;stroke-dasharray:none;stroke-opacity:1" d="M 456,302 H 412 V 282"/>
        <path id="path102" style="fill:none;stroke:#000000;stroke-width:12;stroke-linecap:round;stroke-linejoin:round;stroke-miterlimit:10;stroke-dasharray:none;stroke-opacity:1" d="m 607,302 h 44 V 282 H 412"/>
        <path id="path104" style="fill:none;stroke:#000000;stroke-width:12;stroke-linecap:round;stroke-linejoin:round;stroke-miterlimit:10;stroke-dasharray:none;stroke-opacity:1" d="m 412,8282 v -20"/>
        <path id="path106" style="fill:none;stroke:#000000;stroke-width:12;stroke-linecap:round;stroke-linejoin:round;stroke-miterlimit:10;stroke-dasharray:none;stroke-opacity:1" d="m 412,8282 h 239 v -20"/>
        <path id="path108" style="fill:none;stroke:#000000;stroke-width:12;stroke-linecap:round;stroke-linejoin:round;stroke-miterlimit:10;stroke-dasharray:none;stroke-opacity:1" d="m 412,8262 h 44"/>
        <path id="path110" style="fill:none;stroke:#000000;stroke-width:12;stroke-linecap:round;stroke-linejoin:round;stroke-miterlimit:10;stroke-dasharray:none;stroke-opacity:1" d="m 607,8262 h 44 V 302"/>
        <path id="path112" style="fill:none;stroke:#000000;stroke-width:12;stroke-linecap:round;stroke-linejoin:round;stroke-miterlimit:10;stroke-dasharray:none;stroke-opacity:1" d="m 555,438 v 8"/>
        <path id="path114" style="fill:none;stroke:#000000;stroke-width:12;stroke-linecap:round;stroke-linejoin:round;stroke-miterlimit:10;stroke-dasharray:none;stroke-opacity:1" d="M 555,597 V 764"/>
        <path id="path116" style="fill:none;stroke:#000000;stroke-width:12;stroke-linecap:round;stroke-linejoin:round;stroke-miterlimit:10;stroke-dasharray:none;stroke-opacity:1" d="m 555,915 v 8"/>
        <path id="path118" style="fill:none;stroke:#000000;stroke-width:12;stroke-linecap:round;stroke-linejoin:round;stroke-miterlimit:10;stroke-dasharray:none;stroke-opacity:1" d="M 555,1074 V 2889"/>
        <path id="path120" style="fill:none;stroke:#000000;stroke-width:12;stroke-linecap:round;stroke-linejoin:round;stroke-miterlimit:10;stroke-dasharray:none;stroke-opacity:1" d="M 555,2989 V 5576"/>
        <path id="path122" style="fill:none;stroke:#000000;stroke-width:12;stroke-linecap:round;stroke-linejoin:round;stroke-miterlimit:10;stroke-dasharray:none;stroke-opacity:1" d="M 555,5675 V 7490"/>
        <path id="path124" style="fill:none;stroke:#000000;stroke-width:12;stroke-linecap:round;stroke-linejoin:round;stroke-miterlimit:10;stroke-dasharray:none;stroke-opacity:1" d="m 555,7641 v 8"/>
        <path id="path126" style="fill:none;stroke:#000000;stroke-width:12;stroke-linecap:round;stroke-linejoin:round;stroke-miterlimit:10;stroke-dasharray:none;stroke-opacity:1" d="m 555,7800 v 168"/>
        <path id="path128" style="fill:none;stroke:#000000;stroke-width:12;stroke-linecap:round;stroke-linejoin:round;stroke-miterlimit:10;stroke-dasharray:none;stroke-opacity:1" d="m 555,8119 v 8"/>
        <path id="path130" style="fill:none;stroke:#000000;stroke-width:12;stroke-linecap:round;stroke-linejoin:round;stroke-miterlimit:10;stroke-dasharray:none;stroke-opacity:1" d="M 412,8262 V 302"/>
        <path id="path132" style="fill:none;stroke:#000000;stroke-width:12;stroke-linecap:round;stroke-linejoin:round;stroke-miterlimit:10;stroke-dasharray:none;stroke-opacity:1" d="m 507,8127 v -8"/>
        <path id="path134" style="fill:none;stroke:#000000;stroke-width:12;stroke-linecap:round;stroke-linejoin:round;stroke-miterlimit:10;stroke-dasharray:none;stroke-opacity:1" d="M 507,7968 V 7800"/>
        <path id="path136" style="fill:none;stroke:#000000;stroke-width:12;stroke-linecap:round;stroke-linejoin:round;stroke-miterlimit:10;stroke-dasharray:none;stroke-opacity:1" d="m 507,7649 v -8"/>
        <path id="path138" style="fill:none;stroke:#000000;stroke-width:12;stroke-linecap:round;stroke-linejoin:round;stroke-miterlimit:10;stroke-dasharray:none;stroke-opacity:1" d="M 507,7490 V 5675"/>
        <path id="path140" style="fill:none;stroke:#000000;stroke-width:12;stroke-linecap:round;stroke-linejoin:round;stroke-miterlimit:10;stroke-dasharray:none;stroke-opacity:1" d="M 507,5576 V 2989"/>
        <path id="path142" style="fill:none;stroke:#000000;stroke-width:12;stroke-linecap:round;stroke-linejoin:round;stroke-miterlimit:10;stroke-dasharray:none;stroke-opacity:1" d="M 507,2889 V 1074"/>
        <path id="path144" style="fill:none;stroke:#000000;stroke-width:12;stroke-linecap:round;stroke-linejoin:round;stroke-miterlimit:10;stroke-dasharray:none;stroke-opacity:1" d="m 507,923 v -8"/>
        <path id="path146" style="fill:none;stroke:#000000;stroke-width:12;stroke-linecap:round;stroke-linejoin:round;stroke-miterlimit:10;stroke-dasharray:none;stroke-opacity:1" d="M 507,764 V 597"/>
        <path id="path148" style="fill:none;stroke:#000000;stroke-width:12;stroke-linecap:round;stroke-linejoin:round;stroke-miterlimit:10;stroke-dasharray:none;stroke-opacity:1" d="m 507,446 v -8"/>
        <path id="path150" style="fill:none;stroke:#000000;stroke-width:12;stroke-linecap:round;stroke-linejoin:round;stroke-miterlimit:10;stroke-dasharray:none;stroke-opacity:1" d="m 690,581 h 110 v 20 H 690"/>
        <path id="path152" style="fill:none;stroke:#000000;stroke-width:12;stroke-linecap:round;stroke-linejoin:round;stroke-miterlimit:10;stroke-dasharray:none;stroke-opacity:1" d="M 372,7984 H 263 v -20 h 109"/>
        <path id="path154" style="fill:none;stroke:#000000;stroke-width:12;stroke-linecap:round;stroke-linejoin:round;stroke-miterlimit:10;stroke-dasharray:none;stroke-opacity:1" d="m 690,7785 h 110 v 19 H 690"/>
        <path id="path156" style="fill:none;stroke:#000000;stroke-width:12;stroke-linecap:round;stroke-linejoin:round;stroke-miterlimit:10;stroke-dasharray:none;stroke-opacity:1" d="M 372,780 H 263 v -20 h 109"/>
        <path id="path158" style="fill:none;stroke:#000000;stroke-width:12;stroke-linecap:round;stroke-linejoin:round;stroke-miterlimit:10;stroke-dasharray:none;stroke-opacity:1" d="m 372,1078 h 40"/>
        <path id="path160" style="fill:none;stroke:#000000;stroke-width:12;stroke-linecap:round;stroke-linejoin:round;stroke-miterlimit:10;stroke-dasharray:none;stroke-opacity:1" d="m 507,1078 h 48"/>
        <path id="path162" style="fill:none;stroke:#000000;stroke-width:12;stroke-linecap:round;stroke-linejoin:round;stroke-miterlimit:10;stroke-dasharray:none;stroke-opacity:1" d="m 651,1078 h 39"/>
        <path id="path164" style="fill:none;stroke:#000000;stroke-width:12;stroke-linecap:round;stroke-linejoin:round;stroke-miterlimit:10;stroke-dasharray:none;stroke-opacity:1" d="m 372,282 v 796"/>
        <path id="path166" style="fill:none;stroke:#000000;stroke-width:12;stroke-linecap:round;stroke-linejoin:round;stroke-miterlimit:10;stroke-dasharray:none;stroke-opacity:1" d="M 690,282 H 651"/>
        <path id="path168" style="fill:none;stroke:#000000;stroke-width:12;stroke-linecap:round;stroke-linejoin:round;stroke-miterlimit:10;stroke-dasharray:none;stroke-opacity:1" d="M 412,282 H 372"/>
        <path id="path170" style="fill:none;stroke:#000000;stroke-width:12;stroke-linecap:round;stroke-linejoin:round;stroke-miterlimit:10;stroke-dasharray:none;stroke-opacity:1" d="M 690,1078 V 282"/>
        <path id="path172" style="fill:none;stroke:#000000;stroke-width:12;stroke-linecap:round;stroke-linejoin:round;stroke-miterlimit:10;stroke-dasharray:none;stroke-opacity:1" d="m 372,8282 h 40"/>
        <path id="path174" style="fill:none;stroke:#000000;stroke-width:12;stroke-linecap:round;stroke-linejoin:round;stroke-miterlimit:10;stroke-dasharray:none;stroke-opacity:1" d="m 651,8282 h 39 v -796 h -39"/>
        <path id="path176" style="fill:none;stroke:#000000;stroke-width:12;stroke-linecap:round;stroke-linejoin:round;stroke-miterlimit:10;stroke-dasharray:none;stroke-opacity:1" d="M 555,7486 H 507"/>
        <path id="path178" style="fill:none;stroke:#000000;stroke-width:12;stroke-linecap:round;stroke-linejoin:round;stroke-miterlimit:10;stroke-dasharray:none;stroke-opacity:1" d="m 412,7486 h -40 v 796"/>
        <path id="path180" style="fill:none;stroke:#000000;stroke-width:12;stroke-linecap:round;stroke-linejoin:round;stroke-miterlimit:10;stroke-dasharray:none;stroke-opacity:1" d="m 765,7675.5 c 0,13.5308 -10.96899,24.5 -24.5,24.5 -13.53101,0 -24.5,-10.9692 -24.5,-24.5 0,-13.5308 10.96899,-24.5 24.5,-24.5 13.53101,0 24.5,10.9692 24.5,24.5"/>
        <path id="path182" style="fill:none;stroke:#000000;stroke-width:12;stroke-linecap:round;stroke-linejoin:round;stroke-miterlimit:10;stroke-dasharray:none;stroke-opacity:1" d="m 765,8093.5 c 0,13.5308 -10.96899,24.5 -24.5,24.5 -13.53101,0 -24.5,-10.9692 -24.5,-24.5 0,-13.5308 10.96899,-24.5 24.5,-24.5 13.53101,0 24.5,10.9692 24.5,24.5"/>
        <path id="path184" style="fill:none;stroke:#000000;stroke-width:12;stroke-linecap:round;stroke-linejoin:round;stroke-miterlimit:10;stroke-dasharray:none;stroke-opacity:1" d="M 253,8163 H 372"/>
        <path id="path186" style="fill:none;stroke:#000000;stroke-width:12;stroke-linecap:round;stroke-linejoin:round;stroke-miterlimit:10;stroke-dasharray:none;stroke-opacity:1" d="M 690,8163 H 810 V 7605 H 690"/>
        <path id="path188" style="fill:none;stroke:#000000;stroke-width:12;stroke-linecap:round;stroke-linejoin:round;stroke-miterlimit:10;stroke-dasharray:none;stroke-opacity:1" d="M 372,7605 H 253"/>
        <path id="path190" style="fill:none;stroke:#000000;stroke-width:12;stroke-linecap:round;stroke-linejoin:round;stroke-miterlimit:10;stroke-dasharray:none;stroke-opacity:1" d="m 347,7675.5 c 0,13.5308 -10.96902,24.5 -24.5,24.5 -13.53098,0 -24.5,-10.9692 -24.5,-24.5 0,-13.5308 10.96902,-24.5 24.5,-24.5 13.53098,0 24.5,10.9692 24.5,24.5"/>
        <path id="path192" style="fill:none;stroke:#000000;stroke-width:12;stroke-linecap:round;stroke-linejoin:round;stroke-miterlimit:10;stroke-dasharray:none;stroke-opacity:1" d="m 347,8093.5 c 0,13.5308 -10.96902,24.5 -24.5,24.5 -13.53098,0 -24.5,-10.9692 -24.5,-24.5 0,-13.5308 10.96902,-24.5 24.5,-24.5 13.53098,0 24.5,10.9692 24.5,24.5"/>
        <path id="path194" style="fill:none;stroke:#000000;stroke-width:12;stroke-linecap:round;stroke-linejoin:round;stroke-miterlimit:10;stroke-dasharray:none;stroke-opacity:1" d="m 253,7605 v 558"/>
        <path id="path196" style="fill:none;stroke:#000000;stroke-width:12;stroke-linecap:round;stroke-linejoin:round;stroke-miterlimit:10;stroke-dasharray:none;stroke-opacity:1" d="M 253,959 H 372"/>
        <path id="path198" style="fill:none;stroke:#000000;stroke-width:12;stroke-linecap:round;stroke-linejoin:round;stroke-miterlimit:10;stroke-dasharray:none;stroke-opacity:1" d="M 690,959 H 810 V 402"/>
        <path id="path200" style="fill:none;stroke:#000000;stroke-width:12;stroke-linecap:round;stroke-linejoin:round;stroke-miterlimit:10;stroke-dasharray:none;stroke-opacity:1" d="M 253,402 V 959"/>
        <path id="path202" style="fill:none;stroke:#000000;stroke-width:12;stroke-linecap:round;stroke-linejoin:round;stroke-miterlimit:10;stroke-dasharray:none;stroke-opacity:1" d="m 347,472.5 c 0,13.53098 -10.96902,24.5 -24.5,24.5 -13.53098,0 -24.5,-10.96902 -24.5,-24.5 0,-13.53098 10.96902,-24.5 24.5,-24.5 13.53098,0 24.5,10.96902 24.5,24.5"/>
        <path id="path204" style="fill:none;stroke:#000000;stroke-width:12;stroke-linecap:round;stroke-linejoin:round;stroke-miterlimit:10;stroke-dasharray:none;stroke-opacity:1" d="m 347,889.5 c 0,13.53101 -10.96902,24.5 -24.5,24.5 -13.53098,0 -24.5,-10.96899 -24.5,-24.5 0,-13.53101 10.96902,-24.5 24.5,-24.5 13.53098,0 24.5,10.96899 24.5,24.5"/>
        <path id="path206" style="fill:none;stroke:#000000;stroke-width:12;stroke-linecap:round;stroke-linejoin:round;stroke-miterlimit:10;stroke-dasharray:none;stroke-opacity:1" d="m 765,889.5 c 0,13.53101 -10.96899,24.5 -24.5,24.5 -13.53101,0 -24.5,-10.96899 -24.5,-24.5 0,-13.53101 10.96899,-24.5 24.5,-24.5 13.53101,0 24.5,10.96899 24.5,24.5"/>
        <path id="path208" style="fill:none;stroke:#000000;stroke-width:12;stroke-linecap:round;stroke-linejoin:round;stroke-miterlimit:10;stroke-dasharray:none;stroke-opacity:1" d="m 765,472.5 c 0,13.53098 -10.96899,24.5 -24.5,24.5 -13.53101,0 -24.5,-10.96902 -24.5,-24.5 0,-13.53098 10.96899,-24.5 24.5,-24.5 13.53101,0 24.5,10.96902 24.5,24.5"/>
        <path id="path210" style="fill:none;stroke:#000000;stroke-width:12;stroke-linecap:round;stroke-linejoin:round;stroke-miterlimit:10;stroke-dasharray:none;stroke-opacity:1" d="M 810,402 H 690"/>
        <path id="path212" style="fill:none;stroke:#000000;stroke-width:12;stroke-linecap:round;stroke-linejoin:round;stroke-miterlimit:10;stroke-dasharray:none;stroke-opacity:1" d="M 372,402 H 253"/>
      </g>
    </g>
  </g>
</svg>