<svg xmlns="http://www.w3.org/2000/svg" width="140.5" height="133.3" preserveAspectRatio="none">
  <g id="钢结构1" transform="translate(-197.35 -2.71)">
    <line id="直线_367" data-name="直线 367" y1="0.96" transform="translate(210.12 9.48)" fill="none" stroke="#000" stroke-miterlimit="10" stroke-width="0.1"/>
    <line id="直线_368" data-name="直线 368" y1="1.68" transform="translate(210.12 6.84)" fill="none" stroke="#000" stroke-miterlimit="10" stroke-width="0.1"/>
    <line id="直线_369" data-name="直线 369" y1="0.48" transform="translate(210.12 2.76)" fill="none" stroke="#000" stroke-miterlimit="10" stroke-width="0.1"/>
    <line id="直线_370" data-name="直线 370" y2="0.48" transform="translate(209.64 2.76)" fill="none" stroke="#000" stroke-miterlimit="10" stroke-width="0.1"/>
    <line id="直线_371" data-name="直线 371" y2="1.68" transform="translate(209.64 6.84)" fill="none" stroke="#000" stroke-miterlimit="10" stroke-width="0.1"/>
    <line id="直线_372" data-name="直线 372" y2="0.96" transform="translate(209.64 9.48)" fill="none" stroke="#000" stroke-miterlimit="10" stroke-width="0.1"/>
    <line id="直线_373" data-name="直线 373" y2="0.48" transform="translate(322.44 2.76)" fill="none" stroke="#000" stroke-miterlimit="10" stroke-width="0.1"/>
    <line id="直线_374" data-name="直线 374" y2="1.68" transform="translate(322.44 6.84)" fill="none" stroke="#000" stroke-miterlimit="10" stroke-width="0.1"/>
    <line id="直线_375" data-name="直线 375" y2="0.96" transform="translate(322.44 9.48)" fill="none" stroke="#000" stroke-miterlimit="10" stroke-width="0.1"/>
    <line id="直线_376" data-name="直线 376" y1="0.96" transform="translate(322.92 9.48)" fill="none" stroke="#000" stroke-miterlimit="10" stroke-width="0.1"/>
    <line id="直线_377" data-name="直线 377" y1="1.68" transform="translate(322.92 6.84)" fill="none" stroke="#000" stroke-miterlimit="10" stroke-width="0.1"/>
    <line id="直线_378" data-name="直线 378" y1="0.48" transform="translate(322.92 2.76)" fill="none" stroke="#000" stroke-miterlimit="10" stroke-width="0.1"/>
    <line id="直线_379" data-name="直线 379" y2="0.48" transform="translate(325.08 2.76)" fill="none" stroke="#000" stroke-miterlimit="10" stroke-width="0.1"/>
    <line id="直线_380" data-name="直线 380" y2="1.68" transform="translate(325.08 6.84)" fill="none" stroke="#000" stroke-miterlimit="10" stroke-width="0.1"/>
    <line id="直线_381" data-name="直线 381" y2="0.96" transform="translate(325.08 9.48)" fill="none" stroke="#000" stroke-miterlimit="10" stroke-width="0.1"/>
    <line id="直线_382" data-name="直线 382" y1="0.96" transform="translate(325.56 9.48)" fill="none" stroke="#000" stroke-miterlimit="10" stroke-width="0.1"/>
    <line id="直线_383" data-name="直线 383" y1="1.68" transform="translate(325.56 6.84)" fill="none" stroke="#000" stroke-miterlimit="10" stroke-width="0.1"/>
    <line id="直线_384" data-name="直线 384" y1="0.48" transform="translate(325.56 2.76)" fill="none" stroke="#000" stroke-miterlimit="10" stroke-width="0.1"/>
    <line id="直线_385" data-name="直线 385" y1="0.96" transform="translate(212.52 9.48)" fill="none" stroke="#000" stroke-miterlimit="10" stroke-width="0.1"/>
    <line id="直线_386" data-name="直线 386" y1="1.68" transform="translate(212.52 6.84)" fill="none" stroke="#000" stroke-miterlimit="10" stroke-width="0.1"/>
    <line id="直线_387" data-name="直线 387" y1="0.48" transform="translate(212.52 2.76)" fill="none" stroke="#000" stroke-miterlimit="10" stroke-width="0.1"/>
    <line id="直线_388" data-name="直线 388" y2="0.48" transform="translate(212.28 2.76)" fill="none" stroke="#000" stroke-miterlimit="10" stroke-width="0.1"/>
    <line id="直线_389" data-name="直线 389" y2="1.68" transform="translate(212.28 6.84)" fill="none" stroke="#000" stroke-miterlimit="10" stroke-width="0.1"/>
    <line id="直线_390" data-name="直线 390" y2="0.96" transform="translate(212.28 9.48)" fill="none" stroke="#000" stroke-miterlimit="10" stroke-width="0.1"/>
    <line id="直线_391" data-name="直线 391" transform="translate(323.16 8.76)" fill="none" stroke="#000" stroke-miterlimit="10" stroke-width="0.1"/>
    <line id="直线_392" data-name="直线 392" transform="translate(322.2 8.76)" fill="none" stroke="#000" stroke-miterlimit="10" stroke-width="0.1"/>
    <line id="直线_393" data-name="直线 393" transform="translate(212.76 3.96)" fill="none" stroke="#000" stroke-miterlimit="10" stroke-width="0.1"/>
    <line id="直线_394" data-name="直线 394" transform="translate(212.04 3.96)" fill="none" stroke="#000" stroke-miterlimit="10" stroke-width="0.1"/>
    <line id="直线_395" data-name="直线 395" transform="translate(325.56 8.76)" fill="none" stroke="#000" stroke-miterlimit="10" stroke-width="0.1"/>
    <line id="直线_396" data-name="直线 396" transform="translate(324.84 8.76)" fill="none" stroke="#000" stroke-miterlimit="10" stroke-width="0.1"/>
    <line id="直线_397" data-name="直线 397" transform="translate(324.84 3.96)" fill="none" stroke="#000" stroke-miterlimit="10" stroke-width="0.1"/>
    <line id="直线_398" data-name="直线 398" transform="translate(325.56 3.96)" fill="none" stroke="#000" stroke-miterlimit="10" stroke-width="0.1"/>
    <line id="直线_399" data-name="直线 399" transform="translate(209.4 8.76)" fill="none" stroke="#000" stroke-miterlimit="10" stroke-width="0.1"/>
    <line id="直线_400" data-name="直线 400" transform="translate(210.12 8.76)" fill="none" stroke="#000" stroke-miterlimit="10" stroke-width="0.1"/>
    <line id="直线_401" data-name="直线 401" transform="translate(210.12 3.96)" fill="none" stroke="#000" stroke-miterlimit="10" stroke-width="0.1"/>
    <line id="直线_402" data-name="直线 402" transform="translate(209.4 3.96)" fill="none" stroke="#000" stroke-miterlimit="10" stroke-width="0.1"/>
    <line id="直线_403" data-name="直线 403" transform="translate(322.2 3.96)" fill="none" stroke="#000" stroke-miterlimit="10" stroke-width="0.1"/>
    <line id="直线_404" data-name="直线 404" transform="translate(323.16 3.96)" fill="none" stroke="#000" stroke-miterlimit="10" stroke-width="0.1"/>
    <line id="直线_405" data-name="直线 405" transform="translate(212.04 8.76)" fill="none" stroke="#000" stroke-miterlimit="10" stroke-width="0.1"/>
    <line id="直线_406" data-name="直线 406" transform="translate(212.76 8.76)" fill="none" stroke="#000" stroke-miterlimit="10" stroke-width="0.1"/>
    <line id="直线_407" data-name="直线 407" y2="0.24" transform="translate(336.6 3.24)" fill="none" stroke="#000" stroke-miterlimit="10" stroke-width="0.1"/>
    <line id="直线_408" data-name="直线 408" transform="translate(336.6 7.32)" fill="none" stroke="#000" stroke-miterlimit="10" stroke-width="0.1"/>
    <line id="直线_409" data-name="直线 409" y2="0.24" transform="translate(336.6 7.8)" fill="none" stroke="#000" stroke-miterlimit="10" stroke-width="0.1"/>
    <line id="直线_410" data-name="直线 410" y1="0.24" transform="translate(337.08 7.8)" fill="none" stroke="#000" stroke-miterlimit="10" stroke-width="0.1"/>
    <line id="直线_411" data-name="直线 411" transform="translate(337.08 7.32)" fill="none" stroke="#000" stroke-miterlimit="10" stroke-width="0.1"/>
    <line id="直线_412" data-name="直线 412" y1="0.24" transform="translate(337.08 3.24)" fill="none" stroke="#000" stroke-miterlimit="10" stroke-width="0.1"/>
    <line id="直线_413" data-name="直线 413" y2="0.24" transform="translate(198.12 3.24)" fill="none" stroke="#000" stroke-miterlimit="10" stroke-width="0.1"/>
    <line id="直线_414" data-name="直线 414" transform="translate(198.12 7.32)" fill="none" stroke="#000" stroke-miterlimit="10" stroke-width="0.1"/>
    <line id="直线_415" data-name="直线 415" y2="0.24" transform="translate(198.12 7.8)" fill="none" stroke="#000" stroke-miterlimit="10" stroke-width="0.1"/>
    <line id="直线_416" data-name="直线 416" y1="0.24" transform="translate(198.6 7.8)" fill="none" stroke="#000" stroke-miterlimit="10" stroke-width="0.1"/>
    <line id="直线_417" data-name="直线 417" transform="translate(198.6 7.32)" fill="none" stroke="#000" stroke-miterlimit="10" stroke-width="0.1"/>
    <line id="直线_418" data-name="直线 418" y1="0.24" transform="translate(198.6 3.24)" fill="none" stroke="#000" stroke-miterlimit="10" stroke-width="0.1"/>
    <line id="直线_419" data-name="直线 419" y2="0.24" transform="translate(203.16 3.24)" fill="none" stroke="#000" stroke-miterlimit="10" stroke-width="0.1"/>
    <line id="直线_420" data-name="直线 420" transform="translate(203.16 7.32)" fill="none" stroke="#000" stroke-miterlimit="10" stroke-width="0.1"/>
    <line id="直线_421" data-name="直线 421" y2="0.24" transform="translate(203.16 7.8)" fill="none" stroke="#000" stroke-miterlimit="10" stroke-width="0.1"/>
    <line id="直线_422" data-name="直线 422" y1="0.24" transform="translate(203.64 7.8)" fill="none" stroke="#000" stroke-miterlimit="10" stroke-width="0.1"/>
    <line id="直线_423" data-name="直线 423" transform="translate(203.64 7.32)" fill="none" stroke="#000" stroke-miterlimit="10" stroke-width="0.1"/>
    <line id="直线_424" data-name="直线 424" y1="0.24" transform="translate(203.64 3.24)" fill="none" stroke="#000" stroke-miterlimit="10" stroke-width="0.1"/>
    <line id="直线_425" data-name="直线 425" y2="0.24" transform="translate(331.56 3.24)" fill="none" stroke="#000" stroke-miterlimit="10" stroke-width="0.1"/>
    <line id="直线_426" data-name="直线 426" transform="translate(331.56 7.32)" fill="none" stroke="#000" stroke-miterlimit="10" stroke-width="0.1"/>
    <line id="直线_427" data-name="直线 427" y2="0.24" transform="translate(331.56 7.8)" fill="none" stroke="#000" stroke-miterlimit="10" stroke-width="0.1"/>
    <line id="直线_428" data-name="直线 428" y1="0.24" transform="translate(331.8 7.8)" fill="none" stroke="#000" stroke-miterlimit="10" stroke-width="0.1"/>
    <line id="直线_429" data-name="直线 429" transform="translate(331.8 7.32)" fill="none" stroke="#000" stroke-miterlimit="10" stroke-width="0.1"/>
    <line id="直线_430" data-name="直线 430" y1="0.24" transform="translate(331.8 3.24)" fill="none" stroke="#000" stroke-miterlimit="10" stroke-width="0.1"/>
    <line id="直线_431" data-name="直线 431" transform="translate(336.36 3.96)" fill="none" stroke="#000" stroke-miterlimit="10" stroke-width="0.1"/>
    <line id="直线_432" data-name="直线 432" transform="translate(337.08 3.96)" fill="none" stroke="#000" stroke-miterlimit="10" stroke-width="0.1"/>
    <line id="直线_433" data-name="直线 433" transform="translate(197.88 3.96)" fill="none" stroke="#000" stroke-miterlimit="10" stroke-width="0.1"/>
    <line id="直线_434" data-name="直线 434" transform="translate(198.6 3.96)" fill="none" stroke="#000" stroke-miterlimit="10" stroke-width="0.1"/>
    <line id="直线_435" data-name="直线 435" transform="translate(203.88 7.32)" fill="none" stroke="#000" stroke-miterlimit="10" stroke-width="0.1"/>
    <line id="直线_436" data-name="直线 436" transform="translate(203.16 7.32)" fill="none" stroke="#000" stroke-miterlimit="10" stroke-width="0.1"/>
    <line id="直线_437" data-name="直线 437" transform="translate(337.08 7.32)" fill="none" stroke="#000" stroke-miterlimit="10" stroke-width="0.1"/>
    <line id="直线_438" data-name="直线 438" transform="translate(336.36 7.32)" fill="none" stroke="#000" stroke-miterlimit="10" stroke-width="0.1"/>
    <line id="直线_439" data-name="直线 439" transform="translate(332.04 7.32)" fill="none" stroke="#000" stroke-miterlimit="10" stroke-width="0.1"/>
    <line id="直线_440" data-name="直线 440" transform="translate(331.32 7.32)" fill="none" stroke="#000" stroke-miterlimit="10" stroke-width="0.1"/>
    <line id="直线_441" data-name="直线 441" transform="translate(198.6 7.32)" fill="none" stroke="#000" stroke-miterlimit="10" stroke-width="0.1"/>
    <line id="直线_442" data-name="直线 442" transform="translate(197.88 7.32)" fill="none" stroke="#000" stroke-miterlimit="10" stroke-width="0.1"/>
    <line id="直线_443" data-name="直线 443" transform="translate(203.16 3.96)" fill="none" stroke="#000" stroke-miterlimit="10" stroke-width="0.1"/>
    <line id="直线_444" data-name="直线 444" transform="translate(203.88 3.96)" fill="none" stroke="#000" stroke-miterlimit="10" stroke-width="0.1"/>
    <line id="直线_445" data-name="直线 445" transform="translate(331.32 3.96)" fill="none" stroke="#000" stroke-miterlimit="10" stroke-width="0.1"/>
    <line id="直线_446" data-name="直线 446" transform="translate(332.04 3.96)" fill="none" stroke="#000" stroke-miterlimit="10" stroke-width="0.1"/>
    <line id="直线_447" data-name="直线 447" transform="translate(210.12 2.76)" fill="none" stroke="#000" stroke-miterlimit="10" stroke-width="0.1"/>
    <line id="直线_448" data-name="直线 448" x2="0.48" transform="translate(209.64 2.76)" fill="none" stroke="#000" stroke-miterlimit="10" stroke-width="0.1"/>
    <line id="直线_449" data-name="直线 449" transform="translate(210.12 10.44)" fill="none" stroke="#000" stroke-miterlimit="10" stroke-width="0.1"/>
    <line id="直线_450" data-name="直线 450" x2="0.48" transform="translate(209.64 10.44)" fill="none" stroke="#000" stroke-miterlimit="10" stroke-width="0.1"/>
    <line id="直线_451" data-name="直线 451" x1="0.48" transform="translate(322.44 2.76)" fill="none" stroke="#000" stroke-miterlimit="10" stroke-width="0.1"/>
    <line id="直线_452" data-name="直线 452" x1="0.48" transform="translate(322.44 10.44)" fill="none" stroke="#000" stroke-miterlimit="10" stroke-width="0.1"/>
    <line id="直线_453" data-name="直线 453" transform="translate(325.08 2.76)" fill="none" stroke="#000" stroke-miterlimit="10" stroke-width="0.1"/>
    <line id="直线_454" data-name="直线 454" x1="0.48" transform="translate(325.08 2.76)" fill="none" stroke="#000" stroke-miterlimit="10" stroke-width="0.1"/>
    <line id="直线_455" data-name="直线 455" transform="translate(325.08 10.44)" fill="none" stroke="#000" stroke-miterlimit="10" stroke-width="0.1"/>
    <line id="直线_456" data-name="直线 456" x1="0.48" transform="translate(325.08 10.44)" fill="none" stroke="#000" stroke-miterlimit="10" stroke-width="0.1"/>
    <line id="直线_457" data-name="直线 457" x2="0.24" transform="translate(212.28 2.76)" fill="none" stroke="#000" stroke-miterlimit="10" stroke-width="0.1"/>
    <line id="直线_458" data-name="直线 458" x2="0.24" transform="translate(212.28 10.44)" fill="none" stroke="#000" stroke-miterlimit="10" stroke-width="0.1"/>
    <line id="直线_459" data-name="直线 459" x2="0.24" transform="translate(322.92 8.76)" fill="none" stroke="#000" stroke-miterlimit="10" stroke-width="0.1"/>
    <line id="直线_460" data-name="直线 460" x2="0.72" transform="translate(322.2 8.76)" fill="none" stroke="#000" stroke-miterlimit="10" stroke-width="0.1"/>
    <line id="直线_461" data-name="直线 461" x2="0.72" transform="translate(212.04 3.96)" fill="none" stroke="#000" stroke-miterlimit="10" stroke-width="0.1"/>
    <line id="直线_462" data-name="直线 462" transform="translate(325.56 8.76)" fill="none" stroke="#000" stroke-miterlimit="10" stroke-width="0.1"/>
    <line id="直线_463" data-name="直线 463" x2="0.72" transform="translate(324.84 8.76)" fill="none" stroke="#000" stroke-miterlimit="10" stroke-width="0.1"/>
    <line id="直线_464" data-name="直线 464" x1="0.72" transform="translate(324.84 3.96)" fill="none" stroke="#000" stroke-miterlimit="10" stroke-width="0.1"/>
    <line id="直线_465" data-name="直线 465" transform="translate(209.4 8.76)" fill="none" stroke="#000" stroke-miterlimit="10" stroke-width="0.1"/>
    <line id="直线_466" data-name="直线 466" x1="0.72" transform="translate(209.4 8.76)" fill="none" stroke="#000" stroke-miterlimit="10" stroke-width="0.1"/>
    <line id="直线_467" data-name="直线 467" x2="0.72" transform="translate(209.4 3.96)" fill="none" stroke="#000" stroke-miterlimit="10" stroke-width="0.1"/>
    <line id="直线_468" data-name="直线 468" x1="0.96" transform="translate(322.2 3.96)" fill="none" stroke="#000" stroke-miterlimit="10" stroke-width="0.1"/>
    <line id="直线_469" data-name="直线 469" transform="translate(212.04 8.76)" fill="none" stroke="#000" stroke-miterlimit="10" stroke-width="0.1"/>
    <line id="直线_470" data-name="直线 470" x1="0.72" transform="translate(212.04 8.76)" fill="none" stroke="#000" stroke-miterlimit="10" stroke-width="0.1"/>
    <line id="直线_471" data-name="直线 471" y1="0.24" transform="translate(326.04 8.52)" fill="none" stroke="#000" stroke-miterlimit="10" stroke-width="0.1"/>
    <line id="直线_472" data-name="直线 472" x2="4.08" transform="translate(321.96 8.76)" fill="none" stroke="#000" stroke-miterlimit="10" stroke-width="0.1"/>
    <path id="路径_474" data-name="路径 474" d="M321.96,8.76V8.52h4.08" fill="none" stroke="#000" stroke-miterlimit="10" stroke-width="0.1"/>
    <line id="直线_473" data-name="直线 473" transform="translate(326.04 8.76)" fill="none" stroke="#000" stroke-miterlimit="10" stroke-width="0.1"/>
    <line id="直线_474" data-name="直线 474" transform="translate(321.96 8.76)" fill="none" stroke="#000" stroke-miterlimit="10" stroke-width="0.1"/>
    <line id="直线_475" data-name="直线 475" y1="0.24" x2="0.48" transform="translate(325.56 10.2)" fill="none" stroke="#000" stroke-miterlimit="10" stroke-width="0.1"/>
    <line id="直线_476" data-name="直线 476" x2="3.36" transform="translate(322.2 10.44)" fill="none" stroke="#000" stroke-miterlimit="10" stroke-width="0.1"/>
    <line id="直线_477" data-name="直线 477" x2="0.24" y2="0.24" transform="translate(321.96 10.2)" fill="none" stroke="#000" stroke-miterlimit="10" stroke-width="0.1"/>
    <line id="直线_478" data-name="直线 478" y1="1.44" transform="translate(326.04 8.76)" fill="none" stroke="#000" stroke-miterlimit="10" stroke-width="0.1"/>
    <line id="直线_479" data-name="直线 479" y2="1.44" transform="translate(321.96 8.76)" fill="none" stroke="#000" stroke-miterlimit="10" stroke-width="0.1"/>
    <line id="直线_480" data-name="直线 480" y1="0.24" transform="translate(213.24 8.52)" fill="none" stroke="#000" stroke-miterlimit="10" stroke-width="0.1"/>
    <line id="直线_481" data-name="直线 481" x2="4.08" transform="translate(209.16 8.76)" fill="none" stroke="#000" stroke-miterlimit="10" stroke-width="0.1"/>
    <path id="路径_475" data-name="路径 475" d="M209.16,8.76V8.52h4.08" fill="none" stroke="#000" stroke-miterlimit="10" stroke-width="0.1"/>
    <line id="直线_482" data-name="直线 482" transform="translate(209.16 8.76)" fill="none" stroke="#000" stroke-miterlimit="10" stroke-width="0.1"/>
    <line id="直线_483" data-name="直线 483" transform="translate(213.24 8.76)" fill="none" stroke="#000" stroke-miterlimit="10" stroke-width="0.1"/>
    <line id="直线_484" data-name="直线 484" x2="3.36" transform="translate(209.4 10.44)" fill="none" stroke="#000" stroke-miterlimit="10" stroke-width="0.1"/>
    <line id="直线_485" data-name="直线 485" x2="0.24" y2="0.24" transform="translate(209.16 10.2)" fill="none" stroke="#000" stroke-miterlimit="10" stroke-width="0.1"/>
    <line id="直线_486" data-name="直线 486" y1="0.24" x2="0.48" transform="translate(212.76 10.2)" fill="none" stroke="#000" stroke-miterlimit="10" stroke-width="0.1"/>
    <line id="直线_487" data-name="直线 487" y2="1.44" transform="translate(209.16 8.76)" fill="none" stroke="#000" stroke-miterlimit="10" stroke-width="0.1"/>
    <line id="直线_488" data-name="直线 488" y1="1.44" transform="translate(213.24 8.76)" fill="none" stroke="#000" stroke-miterlimit="10" stroke-width="0.1"/>
    <line id="直线_489" data-name="直线 489" x2="126.24" transform="translate(204.36 6.84)" fill="none" stroke="#000" stroke-miterlimit="10" stroke-width="0.1"/>
    <path id="路径_476" data-name="路径 476" d="M197.64,6.84H337.56" fill="none" stroke="#000" stroke-miterlimit="10" stroke-width="0.1"/>
    <path id="路径_477" data-name="路径 477" d="M197.64,4.44H337.56" fill="none" stroke="#000" stroke-miterlimit="10" stroke-width="0.1"/>
    <line id="直线_490" data-name="直线 490" x2="139.92" transform="translate(197.64 4.44)" fill="none" stroke="#000" stroke-miterlimit="10" stroke-width="0.1"/>
    <line id="直线_491" data-name="直线 491" transform="translate(197.64 4.44)" fill="none" stroke="#000" stroke-miterlimit="10" stroke-width="0.1"/>
    <path id="路径_478" data-name="路径 478" d="M244.44,4.44V4.2h-1.2" fill="none" stroke="#000" stroke-miterlimit="10" stroke-width="0.1"/>
    <line id="直线_492" data-name="直线 492" y1="0.24" transform="translate(243.24 4.2)" fill="none" stroke="#000" stroke-miterlimit="10" stroke-width="0.1"/>
    <path id="路径_479" data-name="路径 479" d="M291.72,4.44V4.2h-1.2" fill="none" stroke="#000" stroke-miterlimit="10" stroke-width="0.1"/>
    <line id="直线_493" data-name="直线 493" y1="0.24" transform="translate(290.52 4.2)" fill="none" stroke="#000" stroke-miterlimit="10" stroke-width="0.1"/>
    <line id="直线_494" data-name="直线 494" transform="translate(336.6 3.24)" fill="none" stroke="#000" stroke-miterlimit="10" stroke-width="0.1"/>
    <line id="直线_495" data-name="直线 495" x1="0.48" transform="translate(336.6 3.24)" fill="none" stroke="#000" stroke-miterlimit="10" stroke-width="0.1"/>
    <line id="直线_496" data-name="直线 496" transform="translate(336.6 8.04)" fill="none" stroke="#000" stroke-miterlimit="10" stroke-width="0.1"/>
    <line id="直线_497" data-name="直线 497" x1="0.48" transform="translate(336.6 8.04)" fill="none" stroke="#000" stroke-miterlimit="10" stroke-width="0.1"/>
    <line id="直线_498" data-name="直线 498" transform="translate(198.12 8.04)" fill="none" stroke="#000" stroke-miterlimit="10" stroke-width="0.1"/>
    <line id="直线_499" data-name="直线 499" x1="0.48" transform="translate(198.12 8.04)" fill="none" stroke="#000" stroke-miterlimit="10" stroke-width="0.1"/>
    <line id="直线_500" data-name="直线 500" transform="translate(198.12 3.24)" fill="none" stroke="#000" stroke-miterlimit="10" stroke-width="0.1"/>
    <line id="直线_501" data-name="直线 501" x1="0.48" transform="translate(198.12 3.24)" fill="none" stroke="#000" stroke-miterlimit="10" stroke-width="0.1"/>
    <line id="直线_502" data-name="直线 502" transform="translate(203.16 8.04)" fill="none" stroke="#000" stroke-miterlimit="10" stroke-width="0.1"/>
    <line id="直线_503" data-name="直线 503" x1="0.48" transform="translate(203.16 8.04)" fill="none" stroke="#000" stroke-miterlimit="10" stroke-width="0.1"/>
    <line id="直线_504" data-name="直线 504" transform="translate(203.16 3.24)" fill="none" stroke="#000" stroke-miterlimit="10" stroke-width="0.1"/>
    <line id="直线_505" data-name="直线 505" x1="0.48" transform="translate(203.16 3.24)" fill="none" stroke="#000" stroke-miterlimit="10" stroke-width="0.1"/>
    <line id="直线_506" data-name="直线 506" transform="translate(331.56 3.24)" fill="none" stroke="#000" stroke-miterlimit="10" stroke-width="0.1"/>
    <line id="直线_507" data-name="直线 507" x1="0.24" transform="translate(331.56 3.24)" fill="none" stroke="#000" stroke-miterlimit="10" stroke-width="0.1"/>
    <line id="直线_508" data-name="直线 508" transform="translate(331.56 8.04)" fill="none" stroke="#000" stroke-miterlimit="10" stroke-width="0.1"/>
    <line id="直线_509" data-name="直线 509" x1="0.24" transform="translate(331.56 8.04)" fill="none" stroke="#000" stroke-miterlimit="10" stroke-width="0.1"/>
    <line id="直线_510" data-name="直线 510" x1="0.72" transform="translate(336.36 3.96)" fill="none" stroke="#000" stroke-miterlimit="10" stroke-width="0.1"/>
    <line id="直线_511" data-name="直线 511" x1="0.72" transform="translate(197.88 3.96)" fill="none" stroke="#000" stroke-miterlimit="10" stroke-width="0.1"/>
    <line id="直线_512" data-name="直线 512" x2="0.72" transform="translate(203.16 7.32)" fill="none" stroke="#000" stroke-miterlimit="10" stroke-width="0.1"/>
    <line id="直线_513" data-name="直线 513" x2="0.72" transform="translate(203.16 7.32)" fill="none" stroke="#000" stroke-miterlimit="10" stroke-width="0.1"/>
    <line id="直线_514" data-name="直线 514" x2="0.72" transform="translate(336.36 7.32)" fill="none" stroke="#000" stroke-miterlimit="10" stroke-width="0.1"/>
    <line id="直线_515" data-name="直线 515" x2="0.72" transform="translate(336.36 7.32)" fill="none" stroke="#000" stroke-miterlimit="10" stroke-width="0.1"/>
    <line id="直线_516" data-name="直线 516" x2="0.72" transform="translate(331.32 7.32)" fill="none" stroke="#000" stroke-miterlimit="10" stroke-width="0.1"/>
    <line id="直线_517" data-name="直线 517" x2="0.72" transform="translate(331.32 7.32)" fill="none" stroke="#000" stroke-miterlimit="10" stroke-width="0.1"/>
    <line id="直线_518" data-name="直线 518" x2="0.72" transform="translate(197.88 7.32)" fill="none" stroke="#000" stroke-miterlimit="10" stroke-width="0.1"/>
    <line id="直线_519" data-name="直线 519" x2="0.72" transform="translate(197.88 7.32)" fill="none" stroke="#000" stroke-miterlimit="10" stroke-width="0.1"/>
    <line id="直线_520" data-name="直线 520" x1="0.72" transform="translate(203.16 3.96)" fill="none" stroke="#000" stroke-miterlimit="10" stroke-width="0.1"/>
    <line id="直线_521" data-name="直线 521" x1="0.72" transform="translate(331.32 3.96)" fill="none" stroke="#000" stroke-miterlimit="10" stroke-width="0.1"/>
    <line id="直线_522" data-name="直线 522" y1="0.24" transform="translate(322.44 3.24)" fill="none" stroke="#000" stroke-miterlimit="10" stroke-width="0.1"/>
    <path id="路径_480" data-name="路径 480" d="M322.44,3.48V3.24h0" fill="none" stroke="#000" stroke-miterlimit="10" stroke-width="0.1"/>
    <line id="直线_523" data-name="直线 523" transform="translate(322.44 3.48)" fill="none" stroke="#000" stroke-miterlimit="10" stroke-width="0.1"/>
    <path id="路径_481" data-name="路径 481" d="M322.92,3.48V3.24h-.48" fill="none" stroke="#000" stroke-miterlimit="10" stroke-width="0.1"/>
    <line id="直线_524" data-name="直线 524" x1="0.48" transform="translate(322.44 3.48)" fill="none" stroke="#000" stroke-miterlimit="10" stroke-width="0.1"/>
    <path id="路径_482" data-name="路径 482" d="M322.92,3.48V3.24h0" fill="none" stroke="#000" stroke-miterlimit="10" stroke-width="0.1"/>
    <line id="直线_525" data-name="直线 525" transform="translate(322.92 3.48)" fill="none" stroke="#000" stroke-miterlimit="10" stroke-width="0.1"/>
    <line id="直线_526" data-name="直线 526" y1="0.48" transform="translate(325.08 3.48)" fill="none" stroke="#000" stroke-miterlimit="10" stroke-width="0.1"/>
    <line id="直线_527" data-name="直线 527" y1="0.48" transform="translate(324.84 3.48)" fill="none" stroke="#000" stroke-miterlimit="10" stroke-width="0.1"/>
    <line id="直线_528" data-name="直线 528" x1="0.24" transform="translate(324.84 3.48)" fill="none" stroke="#000" stroke-miterlimit="10" stroke-width="0.1"/>
    <path id="路径_483" data-name="路径 483" d="M325.32,3.96V3.48h-.24" fill="none" stroke="#000" stroke-miterlimit="10" stroke-width="0.1"/>
    <path id="路径_484" data-name="路径 484" d="M325.56,3.96V3.48h-.24" fill="none" stroke="#000" stroke-miterlimit="10" stroke-width="0.1"/>
    <line id="直线_529" data-name="直线 529" y1="0.48" transform="translate(203.4 3.48)" fill="none" stroke="#000" stroke-miterlimit="10" stroke-width="0.1"/>
    <line id="直线_530" data-name="直线 530" y1="0.48" transform="translate(203.16 3.48)" fill="none" stroke="#000" stroke-miterlimit="10" stroke-width="0.1"/>
    <line id="直线_531" data-name="直线 531" x1="0.24" transform="translate(203.16 3.48)" fill="none" stroke="#000" stroke-miterlimit="10" stroke-width="0.1"/>
    <path id="路径_485" data-name="路径 485" d="M203.88,3.96V3.48h-.48" fill="none" stroke="#000" stroke-miterlimit="10" stroke-width="0.1"/>
    <path id="路径_486" data-name="路径 486" d="M203.16,3.96V3.48h0" fill="none" stroke="#000" stroke-miterlimit="10" stroke-width="0.1"/>
    <line id="直线_532" data-name="直线 532" y2="0.48" transform="translate(203.16 7.32)" fill="none" stroke="#000" stroke-miterlimit="10" stroke-width="0.1"/>
    <line id="直线_533" data-name="直线 533" y2="0.48" transform="translate(203.4 7.32)" fill="none" stroke="#000" stroke-miterlimit="10" stroke-width="0.1"/>
    <line id="直线_534" data-name="直线 534" x2="0.24" transform="translate(203.16 7.8)" fill="none" stroke="#000" stroke-miterlimit="10" stroke-width="0.1"/>
    <line id="直线_535" data-name="直线 535" y2="0.48" transform="translate(203.64 7.32)" fill="none" stroke="#000" stroke-miterlimit="10" stroke-width="0.1"/>
    <line id="直线_536" data-name="直线 536" x2="0.24" transform="translate(203.4 7.8)" fill="none" stroke="#000" stroke-miterlimit="10" stroke-width="0.1"/>
    <line id="直线_537" data-name="直线 537" y2="0.48" transform="translate(203.88 7.32)" fill="none" stroke="#000" stroke-miterlimit="10" stroke-width="0.1"/>
    <line id="直线_538" data-name="直线 538" x2="0.24" transform="translate(203.64 7.8)" fill="none" stroke="#000" stroke-miterlimit="10" stroke-width="0.1"/>
    <line id="直线_539" data-name="直线 539" y2="0.48" transform="translate(325.32 8.76)" fill="none" stroke="#000" stroke-miterlimit="10" stroke-width="0.1"/>
    <line id="直线_540" data-name="直线 540" y2="0.48" transform="translate(325.56 8.76)" fill="none" stroke="#000" stroke-miterlimit="10" stroke-width="0.1"/>
    <line id="直线_541" data-name="直线 541" x2="0.24" transform="translate(325.32 9.24)" fill="none" stroke="#000" stroke-miterlimit="10" stroke-width="0.1"/>
    <path id="路径_487" data-name="路径 487" d="M325.08,8.76v.48h.24" fill="none" stroke="#000" stroke-miterlimit="10" stroke-width="0.1"/>
    <path id="路径_488" data-name="路径 488" d="M324.84,8.76v.48h.24" fill="none" stroke="#000" stroke-miterlimit="10" stroke-width="0.1"/>
    <line id="直线_542" data-name="直线 542" y1="0.24" transform="translate(209.64 9.24)" fill="none" stroke="#000" stroke-miterlimit="10" stroke-width="0.1"/>
    <path id="路径_489" data-name="路径 489" d="M209.64,9.48h-.24V9.24" fill="none" stroke="#000" stroke-miterlimit="10" stroke-width="0.1"/>
    <line id="直线_543" data-name="直线 543" x1="0.24" transform="translate(209.4 9.24)" fill="none" stroke="#000" stroke-miterlimit="10" stroke-width="0.1"/>
    <line id="直线_544" data-name="直线 544" y1="0.24" transform="translate(210.12 9.24)" fill="none" stroke="#000" stroke-miterlimit="10" stroke-width="0.1"/>
    <line id="直线_545" data-name="直线 545" x1="0.48" transform="translate(209.64 9.48)" fill="none" stroke="#000" stroke-miterlimit="10" stroke-width="0.1"/>
    <line id="直线_546" data-name="直线 546" x1="0.48" transform="translate(209.64 9.24)" fill="none" stroke="#000" stroke-miterlimit="10" stroke-width="0.1"/>
    <path id="路径_490" data-name="路径 490" d="M210.12,9.48V9.24m0,.24h0m0-.24h0M325.08,3.48V3.24m-.24.24V3.24m.24,0h-.24m.48.24V3.24h-.24m.48.24V3.24h-.24m0,6v.24m.24-.24v.24m-.24,0h.24m-.48-.24v.24h.24m-.48-.24v.24h.24m12-5.52V3.48m-.24.48V3.48m.24,0h-.24m-.48.48V3.48m.48,0h-.48m.72.48V3.48h0m-.72,3.84V7.8m.24-.48V7.8m-.24,0h.24m.48-.48V7.8m-.48,0h.48m0-.48V7.8h0m-14.16.96v.48m0-.48v.48h0m-.48-.48v.48h.48m-.48-.48v.48h0m0-5.28V3.48m0,.48V3.48m.48.48V3.48m0,.48V3.48M212.28,9.24V8.76m0,.48h-.24V8.76m.48.48V8.76m0,.48h-.24m.48,0V8.76m0,.48h-.24M209.4,3.48v.48m.24-.48v.48m-.24-.48h.24m.48,0v.48m-.48-.48h.48v.48m0-.48h0m-.48,5.76V8.76m-.24.48V8.76m.72.48V8.76m0,.48V8.76m-11.76-4.8V3.48m-.24.48V3.48m.24,0h-.24m.48.48V3.48h-.24m-.48.48V3.48m.24,0h-.24m0,3.84V7.8m.24-.48V7.8m-.24,0h.24m.48-.48V7.8m-.48,0h.48m0-.48V7.8h0m13.44-4.32v.48m.24-.48v.48m-.24-.48h.24m.24,0v.48m-.24-.48h.24m.24,0v.48m-.24-.48h.24m-.48,6V9.24m0,.24h-.24V9.24m.48.24V9.24m0,.24h-.24m.48,0V9.24m0,.24h-.24m-.48-6.24v.24m.24-.24v.24m-.24-.24h.24m.24,0v.24m-.24-.24h.24m.24,0v.24m-.24-.24h.24m119.04.72V3.48m-.48.48V3.48m.48,0h-.48m.72.48V3.48h-.24m-.48.48V3.48h0m0,3.84V7.8m.24-.48V7.8m-.24,0h.24m.24-.48V7.8m-.24,0h.24m.24-.48V7.8m-.24,0h.24M209.4,3.24v.24m.24-.24v.24m-.24-.24h.24m.48,0v.24m-.48-.24h.48v.24m0-.24h0m112.8,6v.24m0-.24v.24h0m-.48-.24v.24h.48m-.48-.24v.24h0m3.84-5.04V3.96h-1.92m0,.48V3.96m6.24,0v.48m0-.48h1.92v.48M202.44,3.96h1.92v.48m-1.92-.48v.48m-5.04-.48v.48m0-.48h1.92v.48m136.56-.48v.48m0-.48h1.92v.48M208.92,3.96v.48m0-.48h1.92v.48m.72-.48v.48m0-.48h1.92v.48m110.16,0V3.96m-1.92.48V3.96m1.92,0h-1.92M333,135.48h-.24m-1.92,0,2.16-3.84m-133.44,3.84v-3.84h.24m0,3.84v-3.84m2.4,3.84h0m0-3.84v3.84m2.16,0-2.16-3.84M333,135.48v-3.84h.24m0,3.84v-3.84m2.16,3.84h.24m-.24-3.84v3.84m2.4,0-2.4-3.84m-135.84,3.84h0m-2.16,0,2.16-3.84M337.8,7.32V6.84h-7.2m7.2.48h-7.2V6.84m-126.24.48V6.84m0,.48H197.4m6.96-.48H197.4m0,.48V6.84m2.16,124.8V7.32m2.64,128.16v-3.84m0,3.84h0M333,131.64V7.32m2.4,128.16v-3.84m0,3.84h0m-131.04.48v-.48m0,.48H197.4v-.48m6.96,0H197.4m140.4.48v-.48m0,.48h-7.2v-.48m7.2,0h-7.2M197.64,4.44h-.24m.24,0v2.4m-.24-2.4v2.4m140.4-2.4h-.24m.24,0v2.4m-.24-2.4v2.4M326.04,8.76h-.48m-.72,0h-1.68m-.96,0h-.24m-108.72,0h-.48m-.72,0h-1.92m-.72,0h-.24m-9.6-1.44V131.64M333,7.32V131.64" fill="none" stroke="#000" stroke-miterlimit="10" stroke-width="0.1"/>
  </g>
</svg>
